<svg version="1.1" xmlns="http://www.w3.org/2000/svg" xmlns:xlink="http://www.w3.org/1999/xlink" width="533.30810546875" height="524"><defs/><g><text fill="#eeeeee" stroke="none" font-family="Arial" font-size="24px" font-style="normal" font-weight="normal" text-decoration="none" x="0" y="0">UNREGISTERED</text><text fill="#eeeeee" stroke="none" font-family="Arial" font-size="24px" font-style="normal" font-weight="normal" text-decoration="none" x="0" y="30">UNREGISTERED</text><text fill="#eeeeee" stroke="none" font-family="Arial" font-size="24px" font-style="normal" font-weight="normal" text-decoration="none" x="0" y="60">UNREGISTERED</text><text fill="#eeeeee" stroke="none" font-family="Arial" font-size="24px" font-style="normal" font-weight="normal" text-decoration="none" x="0" y="90">UNREGISTERED</text><text fill="#eeeeee" stroke="none" font-family="Arial" font-size="24px" font-style="normal" font-weight="normal" text-decoration="none" x="0" y="120">UNREGISTERED</text><text fill="#eeeeee" stroke="none" font-family="Arial" font-size="24px" font-style="normal" font-weight="normal" text-decoration="none" x="0" y="150">UNREGISTERED</text><text fill="#eeeeee" stroke="none" font-family="Arial" font-size="24px" font-style="normal" font-weight="normal" text-decoration="none" x="0" y="180">UNREGISTERED</text><text fill="#eeeeee" stroke="none" font-family="Arial" font-size="24px" font-style="normal" font-weight="normal" text-decoration="none" x="0" y="210">UNREGISTERED</text><text fill="#eeeeee" stroke="none" font-family="Arial" font-size="24px" font-style="normal" font-weight="normal" text-decoration="none" x="0" y="240">UNREGISTERED</text><text fill="#eeeeee" stroke="none" font-family="Arial" font-size="24px" font-style="normal" font-weight="normal" text-decoration="none" x="0" y="270">UNREGISTERED</text><text fill="#eeeeee" stroke="none" font-family="Arial" font-size="24px" font-style="normal" font-weight="normal" text-decoration="none" x="0" y="300">UNREGISTERED</text><text fill="#eeeeee" stroke="none" font-family="Arial" font-size="24px" font-style="normal" font-weight="normal" text-decoration="none" x="0" y="330">UNREGISTERED</text><text fill="#eeeeee" stroke="none" font-family="Arial" font-size="24px" font-style="normal" font-weight="normal" text-decoration="none" x="0" y="360">UNREGISTERED</text><text fill="#eeeeee" stroke="none" font-family="Arial" font-size="24px" font-style="normal" font-weight="normal" text-decoration="none" x="0" y="390">UNREGISTERED</text><text fill="#eeeeee" stroke="none" font-family="Arial" font-size="24px" font-style="normal" font-weight="normal" text-decoration="none" x="0" y="420">UNREGISTERED</text><text fill="#eeeeee" stroke="none" font-family="Arial" font-size="24px" font-style="normal" font-weight="normal" text-decoration="none" x="0" y="450">UNREGISTERED</text><text fill="#eeeeee" stroke="none" font-family="Arial" font-size="24px" font-style="normal" font-weight="normal" text-decoration="none" x="0" y="480">UNREGISTERED</text><text fill="#eeeeee" stroke="none" font-family="Arial" font-size="24px" font-style="normal" font-weight="normal" text-decoration="none" x="0" y="510">UNREGISTERED</text><text fill="#eeeeee" stroke="none" font-family="Arial" font-size="24px" font-style="normal" font-weight="normal" text-decoration="none" x="200" y="0">UNREGISTERED</text><text fill="#eeeeee" stroke="none" font-family="Arial" font-size="24px" font-style="normal" font-weight="normal" text-decoration="none" x="200" y="30">UNREGISTERED</text><text fill="#eeeeee" stroke="none" font-family="Arial" font-size="24px" font-style="normal" font-weight="normal" text-decoration="none" x="200" y="60">UNREGISTERED</text><text fill="#eeeeee" stroke="none" font-family="Arial" font-size="24px" font-style="normal" font-weight="normal" text-decoration="none" x="200" y="90">UNREGISTERED</text><text fill="#eeeeee" stroke="none" font-family="Arial" font-size="24px" font-style="normal" font-weight="normal" text-decoration="none" x="200" y="120">UNREGISTERED</text><text fill="#eeeeee" stroke="none" font-family="Arial" font-size="24px" font-style="normal" font-weight="normal" text-decoration="none" x="200" y="150">UNREGISTERED</text><text fill="#eeeeee" stroke="none" font-family="Arial" font-size="24px" font-style="normal" font-weight="normal" text-decoration="none" x="200" y="180">UNREGISTERED</text><text fill="#eeeeee" stroke="none" font-family="Arial" font-size="24px" font-style="normal" font-weight="normal" text-decoration="none" x="200" y="210">UNREGISTERED</text><text fill="#eeeeee" stroke="none" font-family="Arial" font-size="24px" font-style="normal" font-weight="normal" text-decoration="none" x="200" y="240">UNREGISTERED</text><text fill="#eeeeee" stroke="none" font-family="Arial" font-size="24px" font-style="normal" font-weight="normal" text-decoration="none" x="200" y="270">UNREGISTERED</text><text fill="#eeeeee" stroke="none" font-family="Arial" font-size="24px" font-style="normal" font-weight="normal" text-decoration="none" x="200" y="300">UNREGISTERED</text><text fill="#eeeeee" stroke="none" font-family="Arial" font-size="24px" font-style="normal" font-weight="normal" text-decoration="none" x="200" y="330">UNREGISTERED</text><text fill="#eeeeee" stroke="none" font-family="Arial" font-size="24px" font-style="normal" font-weight="normal" text-decoration="none" x="200" y="360">UNREGISTERED</text><text fill="#eeeeee" stroke="none" font-family="Arial" font-size="24px" font-style="normal" font-weight="normal" text-decoration="none" x="200" y="390">UNREGISTERED</text><text fill="#eeeeee" stroke="none" font-family="Arial" font-size="24px" font-style="normal" font-weight="normal" text-decoration="none" x="200" y="420">UNREGISTERED</text><text fill="#eeeeee" stroke="none" font-family="Arial" font-size="24px" font-style="normal" font-weight="normal" text-decoration="none" x="200" y="450">UNREGISTERED</text><text fill="#eeeeee" stroke="none" font-family="Arial" font-size="24px" font-style="normal" font-weight="normal" text-decoration="none" x="200" y="480">UNREGISTERED</text><text fill="#eeeeee" stroke="none" font-family="Arial" font-size="24px" font-style="normal" font-weight="normal" text-decoration="none" x="200" y="510">UNREGISTERED</text><text fill="#eeeeee" stroke="none" font-family="Arial" font-size="24px" font-style="normal" font-weight="normal" text-decoration="none" x="400" y="0">UNREGISTERED</text><text fill="#eeeeee" stroke="none" font-family="Arial" font-size="24px" font-style="normal" font-weight="normal" text-decoration="none" x="400" y="30">UNREGISTERED</text><text fill="#eeeeee" stroke="none" font-family="Arial" font-size="24px" font-style="normal" font-weight="normal" text-decoration="none" x="400" y="60">UNREGISTERED</text><text fill="#eeeeee" stroke="none" font-family="Arial" font-size="24px" font-style="normal" font-weight="normal" text-decoration="none" x="400" y="90">UNREGISTERED</text><text fill="#eeeeee" stroke="none" font-family="Arial" font-size="24px" font-style="normal" font-weight="normal" text-decoration="none" x="400" y="120">UNREGISTERED</text><text fill="#eeeeee" stroke="none" font-family="Arial" font-size="24px" font-style="normal" font-weight="normal" text-decoration="none" x="400" y="150">UNREGISTERED</text><text fill="#eeeeee" stroke="none" font-family="Arial" font-size="24px" font-style="normal" font-weight="normal" text-decoration="none" x="400" y="180">UNREGISTERED</text><text fill="#eeeeee" stroke="none" font-family="Arial" font-size="24px" font-style="normal" font-weight="normal" text-decoration="none" x="400" y="210">UNREGISTERED</text><text fill="#eeeeee" stroke="none" font-family="Arial" font-size="24px" font-style="normal" font-weight="normal" text-decoration="none" x="400" y="240">UNREGISTERED</text><text fill="#eeeeee" stroke="none" font-family="Arial" font-size="24px" font-style="normal" font-weight="normal" text-decoration="none" x="400" y="270">UNREGISTERED</text><text fill="#eeeeee" stroke="none" font-family="Arial" font-size="24px" font-style="normal" font-weight="normal" text-decoration="none" x="400" y="300">UNREGISTERED</text><text fill="#eeeeee" stroke="none" font-family="Arial" font-size="24px" font-style="normal" font-weight="normal" text-decoration="none" x="400" y="330">UNREGISTERED</text><text fill="#eeeeee" stroke="none" font-family="Arial" font-size="24px" font-style="normal" font-weight="normal" text-decoration="none" x="400" y="360">UNREGISTERED</text><text fill="#eeeeee" stroke="none" font-family="Arial" font-size="24px" font-style="normal" font-weight="normal" text-decoration="none" x="400" y="390">UNREGISTERED</text><text fill="#eeeeee" stroke="none" font-family="Arial" font-size="24px" font-style="normal" font-weight="normal" text-decoration="none" x="400" y="420">UNREGISTERED</text><text fill="#eeeeee" stroke="none" font-family="Arial" font-size="24px" font-style="normal" font-weight="normal" text-decoration="none" x="400" y="450">UNREGISTERED</text><text fill="#eeeeee" stroke="none" font-family="Arial" font-size="24px" font-style="normal" font-weight="normal" text-decoration="none" x="400" y="480">UNREGISTERED</text><text fill="#eeeeee" stroke="none" font-family="Arial" font-size="24px" font-style="normal" font-weight="normal" text-decoration="none" x="400" y="510">UNREGISTERED</text><g transform="translate(-274,-242) scale(1,1)"><rect fill="#C0C0C0" stroke="none" x="460.30810546875" y="259" width="344" height="504" opacity="0.2"/></g><g transform="translate(-274,-242) scale(1,1)"><rect fill="#ffffff" stroke="none" x="453.30810546875" y="252" width="344" height="504"/></g><g transform="translate(-274,-242) scale(1,1)"><path fill="none" stroke="#000000" d="M 453.30810546875 252 L 797.30810546875 252 L 797.30810546875 756 L 453.30810546875 756 L 453.30810546875 252 Z Z" stroke-miterlimit="10"/></g><g transform="translate(-274,-242) scale(1,1)"><g><path fill="none" stroke="none"/><text fill="#000000" stroke="none" font-family="Arial" font-size="13px" font-style="normal" font-weight="bold" text-decoration="none" x="603.99267578125" y="271.5">Monefy</text></g></g><g transform="translate(-274,-242) scale(1,1)"><path fill="#ffffff" stroke="none" d="M 344.47478000710225 505.68 C 344.47478000710225 500.886167936 348.36062233204774 497 353.154052734375 497 C 357.94748313670226 497 361.83332546164775 500.886167936 361.83332546164775 505.68 C 361.83332546164775 510.473832064 357.94748313670226 514.36 353.154052734375 514.36 C 348.36062233204774 514.36 344.47478000710225 510.473832064 344.47478000710225 505.68 Z"/></g><g transform="translate(-274,-242) scale(1,1)"><path fill="none" stroke="#000000" d="M 344.47478000710225 505.68 C 344.47478000710225 500.886167936 348.36062233204774 497 353.154052734375 497 C 357.94748313670226 497 361.83332546164775 500.886167936 361.83332546164775 505.68 C 361.83332546164775 510.473832064 357.94748313670226 514.36 353.154052734375 514.36 C 348.36062233204774 514.36 344.47478000710225 510.473832064 344.47478000710225 505.68 Z" stroke-miterlimit="10"/></g><g transform="translate(-274,-242) scale(1,1)"><path fill="none" stroke="#000000" d="M 353.154052734375 514.36 L 353.154052734375 531.64" stroke-miterlimit="10"/></g><g transform="translate(-274,-242) scale(1,1)"><path fill="none" stroke="#000000" d="M 343.96423455255683 520.84 L 362.34387091619317 520.84" stroke-miterlimit="10"/></g><g transform="translate(-274,-242) scale(1,1)"><path fill="none" stroke="#000000" d="M 353.154052734375 531.64 L 340.39041637073865 549" stroke-miterlimit="10"/></g><g transform="translate(-274,-242) scale(1,1)"><path fill="none" stroke="#000000" d="M 353.154052734375 531.64 L 365.91768909801135 549" stroke-miterlimit="10"/></g><g transform="translate(-274,-242) scale(1,1)"><g><path fill="none" stroke="none"/><text fill="#000000" stroke="none" font-family="Arial" font-size="13px" font-style="normal" font-weight="bold" text-decoration="none" x="339.430419921875" y="569.5">User</text></g></g><g transform="translate(-274,-242) scale(1,1)"><path fill="#ffffff" stroke="none" d="M 344.47478000710225 278.18 C 344.47478000710225 273.386167936 348.36062233204774 269.5 353.154052734375 269.5 C 357.94748313670226 269.5 361.83332546164775 273.386167936 361.83332546164775 278.18 C 361.83332546164775 282.973832064 357.94748313670226 286.86 353.154052734375 286.86 C 348.36062233204774 286.86 344.47478000710225 282.973832064 344.47478000710225 278.18 Z"/></g><g transform="translate(-274,-242) scale(1,1)"><path fill="none" stroke="#000000" d="M 344.47478000710225 278.18 C 344.47478000710225 273.386167936 348.36062233204774 269.5 353.154052734375 269.5 C 357.94748313670226 269.5 361.83332546164775 273.386167936 361.83332546164775 278.18 C 361.83332546164775 282.973832064 357.94748313670226 286.86 353.154052734375 286.86 C 348.36062233204774 286.86 344.47478000710225 282.973832064 344.47478000710225 278.18 Z" stroke-miterlimit="10"/></g><g transform="translate(-274,-242) scale(1,1)"><path fill="none" stroke="#000000" d="M 353.154052734375 286.86 L 353.154052734375 304.14" stroke-miterlimit="10"/></g><g transform="translate(-274,-242) scale(1,1)"><path fill="none" stroke="#000000" d="M 343.96423455255683 293.34 L 362.34387091619317 293.34" stroke-miterlimit="10"/></g><g transform="translate(-274,-242) scale(1,1)"><path fill="none" stroke="#000000" d="M 353.154052734375 304.14 L 340.39041637073865 321.5" stroke-miterlimit="10"/></g><g transform="translate(-274,-242) scale(1,1)"><path fill="none" stroke="#000000" d="M 353.154052734375 304.14 L 365.91768909801135 321.5" stroke-miterlimit="10"/></g><g transform="translate(-274,-242) scale(1,1)"><g><path fill="none" stroke="none"/><text fill="#000000" stroke="none" font-family="Arial" font-size="13px" font-style="normal" font-weight="bold" text-decoration="none" x="324.621337890625" y="342">New User</text></g></g><g transform="translate(-274,-242) scale(1,1)"><path fill="#C0C0C0" stroke="none" d="M 581.80810546875 315 C 581.80810546875 305.6111584 604.41772306875 298 632.30810546875 298 C 660.19848786875 298 682.80810546875 305.6111584 682.80810546875 315 C 682.80810546875 324.3888416 660.19848786875 332 632.30810546875 332 C 604.41772306875 332 581.80810546875 324.3888416 581.80810546875 315 Z" opacity="0.2"/></g><g transform="translate(-274,-242) scale(1,1)"><path fill="#ffffff" stroke="none" d="M 574.80810546875 308 C 574.80810546875 298.6111584 597.41772306875 291 625.30810546875 291 C 653.19848786875 291 675.80810546875 298.6111584 675.80810546875 308 C 675.80810546875 317.3888416 653.19848786875 325 625.30810546875 325 C 597.41772306875 325 574.80810546875 317.3888416 574.80810546875 308 Z"/></g><g transform="translate(-274,-242) scale(1,1)"><path fill="none" stroke="#000000" d="M 574.80810546875 308 C 574.80810546875 298.6111584 597.41772306875 291 625.30810546875 291 C 653.19848786875 291 675.80810546875 298.6111584 675.80810546875 308 C 675.80810546875 317.3888416 653.19848786875 325 625.30810546875 325 C 597.41772306875 325 574.80810546875 317.3888416 574.80810546875 308 Z" stroke-miterlimit="10"/></g><g transform="translate(-274,-242) scale(1,1)"><g><path fill="none" stroke="none"/><text fill="#000000" stroke="none" font-family="Arial" font-size="13px" font-style="normal" font-weight="bold" text-decoration="none" x="603.2626953125" y="315">Sign up</text></g></g><g transform="translate(-274,-242) scale(1,1)"><path fill="#C0C0C0" stroke="none" d="M 573.80810546875 705 C 573.80810546875 695.6111584 599.99944466875 688 632.30810546875 688 C 664.61676626875 688 690.80810546875 695.6111584 690.80810546875 705 C 690.80810546875 714.3888416 664.61676626875 722 632.30810546875 722 C 599.99944466875 722 573.80810546875 714.3888416 573.80810546875 705 Z" opacity="0.2"/></g><g transform="translate(-274,-242) scale(1,1)"><path fill="#ffffff" stroke="none" d="M 566.80810546875 698 C 566.80810546875 688.6111584 592.99944466875 681 625.30810546875 681 C 657.61676626875 681 683.80810546875 688.6111584 683.80810546875 698 C 683.80810546875 707.3888416 657.61676626875 715 625.30810546875 715 C 592.99944466875 715 566.80810546875 707.3888416 566.80810546875 698 Z"/></g><g transform="translate(-274,-242) scale(1,1)"><path fill="none" stroke="#000000" d="M 566.80810546875 698 C 566.80810546875 688.6111584 592.99944466875 681 625.30810546875 681 C 657.61676626875 681 683.80810546875 688.6111584 683.80810546875 698 C 683.80810546875 707.3888416 657.61676626875 715 625.30810546875 715 C 592.99944466875 715 566.80810546875 707.3888416 566.80810546875 698 Z" stroke-miterlimit="10"/></g><g transform="translate(-274,-242) scale(1,1)"><g><path fill="none" stroke="none"/><text fill="#000000" stroke="none" font-family="Arial" font-size="13px" font-style="normal" font-weight="bold" text-decoration="none" x="590.99267578125" y="705">Verify Email</text></g></g><g transform="translate(-274,-242) scale(1,1)"><path fill="none" stroke="#000000" d="M 353 308 Q 423 309 430.5 309 Q 438 309 574 308" stroke-miterlimit="10"/></g><g transform="translate(-274,-242) scale(1,1)"><path fill="#C0C0C0" stroke="none" d="M 581.80810546875 380 C 581.80810546875 370.6111584 604.41772306875 363 632.30810546875 363 C 660.19848786875 363 682.80810546875 370.6111584 682.80810546875 380 C 682.80810546875 389.3888416 660.19848786875 397 632.30810546875 397 C 604.41772306875 397 581.80810546875 389.3888416 581.80810546875 380 Z" opacity="0.2"/></g><g transform="translate(-274,-242) scale(1,1)"><path fill="#ffffff" stroke="none" d="M 574.80810546875 373 C 574.80810546875 363.6111584 597.41772306875 356 625.30810546875 356 C 653.19848786875 356 675.80810546875 363.6111584 675.80810546875 373 C 675.80810546875 382.3888416 653.19848786875 390 625.30810546875 390 C 597.41772306875 390 574.80810546875 382.3888416 574.80810546875 373 Z"/></g><g transform="translate(-274,-242) scale(1,1)"><path fill="none" stroke="#000000" d="M 574.80810546875 373 C 574.80810546875 363.6111584 597.41772306875 356 625.30810546875 356 C 653.19848786875 356 675.80810546875 363.6111584 675.80810546875 373 C 675.80810546875 382.3888416 653.19848786875 390 625.30810546875 390 C 597.41772306875 390 574.80810546875 382.3888416 574.80810546875 373 Z" stroke-miterlimit="10"/></g><g transform="translate(-274,-242) scale(1,1)"><g><path fill="none" stroke="none"/><text fill="#000000" stroke="none" font-family="Arial" font-size="13px" font-style="normal" font-weight="bold" text-decoration="none" x="598.578125" y="380">Edit User</text></g></g><g transform="translate(-274,-242) scale(1,1)"><path fill="none" stroke="#000000" d="M 353 535 Q 373 499 405.5 436.5 Q 438 374 574 373" stroke-miterlimit="10"/></g><g transform="translate(-274,-242) scale(1,1)"><path fill="#C0C0C0" stroke="none" d="M 546.30810546875 445 C 546.30810546875 435.6111584 584.8116126687501 428 632.30810546875 428 C 679.8045982687499 428 718.30810546875 435.6111584 718.30810546875 445 C 718.30810546875 454.3888416 679.8045982687499 462 632.30810546875 462 C 584.8116126687501 462 546.30810546875 454.3888416 546.30810546875 445 Z" opacity="0.2"/></g><g transform="translate(-274,-242) scale(1,1)"><path fill="#ffffff" stroke="none" d="M 539.30810546875 438 C 539.30810546875 428.6111584 577.8116126687501 421 625.30810546875 421 C 672.8045982687499 421 711.30810546875 428.6111584 711.30810546875 438 C 711.30810546875 447.3888416 672.8045982687499 455 625.30810546875 455 C 577.8116126687501 455 539.30810546875 447.3888416 539.30810546875 438 Z"/></g><g transform="translate(-274,-242) scale(1,1)"><path fill="none" stroke="#000000" d="M 539.30810546875 438 C 539.30810546875 428.6111584 577.8116126687501 421 625.30810546875 421 C 672.8045982687499 421 711.30810546875 428.6111584 711.30810546875 438 C 711.30810546875 447.3888416 672.8045982687499 455 625.30810546875 455 C 577.8116126687501 455 539.30810546875 447.3888416 539.30810546875 438 Z" stroke-miterlimit="10"/></g><g transform="translate(-274,-242) scale(1,1)"><g><path fill="none" stroke="none"/><text fill="#000000" stroke="none" font-family="Arial" font-size="13px" font-style="normal" font-weight="bold" text-decoration="none" x="572.194091796875" y="445">Change Password</text></g></g><g transform="translate(-274,-242) scale(1,1)"><path fill="none" stroke="#000000" d="M 353 535 Q 373 514 405.5 476.5 Q 438 439 538 438" stroke-miterlimit="10"/></g><g transform="translate(-274,-242) scale(1,1)"><path fill="#C0C0C0" stroke="none" d="M 581.80810546875 510 C 581.80810546875 500.6111584 604.41772306875 493 632.30810546875 493 C 660.19848786875 493 682.80810546875 500.6111584 682.80810546875 510 C 682.80810546875 519.3888416 660.19848786875 527 632.30810546875 527 C 604.41772306875 527 581.80810546875 519.3888416 581.80810546875 510 Z" opacity="0.2"/></g><g transform="translate(-274,-242) scale(1,1)"><path fill="#ffffff" stroke="none" d="M 574.80810546875 503 C 574.80810546875 493.6111584 597.41772306875 486 625.30810546875 486 C 653.19848786875 486 675.80810546875 493.6111584 675.80810546875 503 C 675.80810546875 512.3888416 653.19848786875 520 625.30810546875 520 C 597.41772306875 520 574.80810546875 512.3888416 574.80810546875 503 Z"/></g><g transform="translate(-274,-242) scale(1,1)"><path fill="none" stroke="#000000" d="M 574.80810546875 503 C 574.80810546875 493.6111584 597.41772306875 486 625.30810546875 486 C 653.19848786875 486 675.80810546875 493.6111584 675.80810546875 503 C 675.80810546875 512.3888416 653.19848786875 520 625.30810546875 520 C 597.41772306875 520 574.80810546875 512.3888416 574.80810546875 503 Z" stroke-miterlimit="10"/></g><g transform="translate(-274,-242) scale(1,1)"><g><path fill="none" stroke="none"/><text fill="#000000" stroke="none" font-family="Arial" font-size="13px" font-style="normal" font-weight="bold" text-decoration="none" x="595.807373046875" y="510">View User</text></g></g><g transform="translate(-274,-242) scale(1,1)"><path fill="none" stroke="#000000" d="M 353 535 Q 373 529 405.5 516.5 Q 438 504 574 503" stroke-miterlimit="10"/></g><g transform="translate(-274,-242) scale(1,1)"><path fill="#C0C0C0" stroke="none" d="M 581.80810546875 640 C 581.80810546875 630.6111584 604.41772306875 623 632.30810546875 623 C 660.19848786875 623 682.80810546875 630.6111584 682.80810546875 640 C 682.80810546875 649.3888416 660.19848786875 657 632.30810546875 657 C 604.41772306875 657 581.80810546875 649.3888416 581.80810546875 640 Z" opacity="0.2"/></g><g transform="translate(-274,-242) scale(1,1)"><path fill="#ffffff" stroke="none" d="M 574.80810546875 633 C 574.80810546875 623.6111584 597.41772306875 616 625.30810546875 616 C 653.19848786875 616 675.80810546875 623.6111584 675.80810546875 633 C 675.80810546875 642.3888416 653.19848786875 650 625.30810546875 650 C 597.41772306875 650 574.80810546875 642.3888416 574.80810546875 633 Z"/></g><g transform="translate(-274,-242) scale(1,1)"><path fill="none" stroke="#000000" d="M 574.80810546875 633 C 574.80810546875 623.6111584 597.41772306875 616 625.30810546875 616 C 653.19848786875 616 675.80810546875 623.6111584 675.80810546875 633 C 675.80810546875 642.3888416 653.19848786875 650 625.30810546875 650 C 597.41772306875 650 574.80810546875 642.3888416 574.80810546875 633 Z" stroke-miterlimit="10"/></g><g transform="translate(-274,-242) scale(1,1)"><g><path fill="none" stroke="none"/><text fill="#000000" stroke="none" font-family="Arial" font-size="13px" font-style="normal" font-weight="bold" text-decoration="none" x="609.404052734375" y="640">Login</text></g></g><g transform="translate(-274,-242) scale(1,1)"><path fill="#C0C0C0" stroke="none" d="M 581.80810546875 575 C 581.80810546875 565.6111584 604.41772306875 558 632.30810546875 558 C 660.19848786875 558 682.80810546875 565.6111584 682.80810546875 575 C 682.80810546875 584.3888416 660.19848786875 592 632.30810546875 592 C 604.41772306875 592 581.80810546875 584.3888416 581.80810546875 575 Z" opacity="0.2"/></g><g transform="translate(-274,-242) scale(1,1)"><path fill="#ffffff" stroke="none" d="M 574.80810546875 568 C 574.80810546875 558.6111584 597.41772306875 551 625.30810546875 551 C 653.19848786875 551 675.80810546875 558.6111584 675.80810546875 568 C 675.80810546875 577.3888416 653.19848786875 585 625.30810546875 585 C 597.41772306875 585 574.80810546875 577.3888416 574.80810546875 568 Z"/></g><g transform="translate(-274,-242) scale(1,1)"><path fill="none" stroke="#000000" d="M 574.80810546875 568 C 574.80810546875 558.6111584 597.41772306875 551 625.30810546875 551 C 653.19848786875 551 675.80810546875 558.6111584 675.80810546875 568 C 675.80810546875 577.3888416 653.19848786875 585 625.30810546875 585 C 597.41772306875 585 574.80810546875 577.3888416 574.80810546875 568 Z" stroke-miterlimit="10"/></g><g transform="translate(-274,-242) scale(1,1)"><g><path fill="none" stroke="none"/><text fill="#000000" stroke="none" font-family="Arial" font-size="13px" font-style="normal" font-weight="bold" text-decoration="none" x="605.42724609375" y="575">Logout</text></g></g><g transform="translate(-274,-242) scale(1,1)"><path fill="none" stroke="#000000" d="M 353 535 Q 373 543 405.5 556 Q 438 569 574 568" stroke-miterlimit="10"/></g><g transform="translate(-274,-242) scale(1,1)"><path fill="none" stroke="#000000" d="M 353 535 Q 373 558 405.5 596 Q 438 634 574 633" stroke-miterlimit="10"/></g><g transform="translate(-274,-242) scale(1,1)"><path fill="none" stroke="#000000" d="M 353 535 Q 373 573 405.5 636 Q 438 699 566 698" stroke-miterlimit="10"/></g></g></svg>