<svg version="1.1" xmlns="http://www.w3.org/2000/svg" xmlns:xlink="http://www.w3.org/1999/xlink" width="544" height="580"><defs/><g><text fill="#eeeeee" stroke="none" font-family="Arial" font-size="24px" font-style="normal" font-weight="normal" text-decoration="none" x="0" y="0">UNREGISTERED</text><text fill="#eeeeee" stroke="none" font-family="Arial" font-size="24px" font-style="normal" font-weight="normal" text-decoration="none" x="0" y="30">UNREGISTERED</text><text fill="#eeeeee" stroke="none" font-family="Arial" font-size="24px" font-style="normal" font-weight="normal" text-decoration="none" x="0" y="60">UNREGISTERED</text><text fill="#eeeeee" stroke="none" font-family="Arial" font-size="24px" font-style="normal" font-weight="normal" text-decoration="none" x="0" y="90">UNREGISTERED</text><text fill="#eeeeee" stroke="none" font-family="Arial" font-size="24px" font-style="normal" font-weight="normal" text-decoration="none" x="0" y="120">UNREGISTERED</text><text fill="#eeeeee" stroke="none" font-family="Arial" font-size="24px" font-style="normal" font-weight="normal" text-decoration="none" x="0" y="150">UNREGISTERED</text><text fill="#eeeeee" stroke="none" font-family="Arial" font-size="24px" font-style="normal" font-weight="normal" text-decoration="none" x="0" y="180">UNREGISTERED</text><text fill="#eeeeee" stroke="none" font-family="Arial" font-size="24px" font-style="normal" font-weight="normal" text-decoration="none" x="0" y="210">UNREGISTERED</text><text fill="#eeeeee" stroke="none" font-family="Arial" font-size="24px" font-style="normal" font-weight="normal" text-decoration="none" x="0" y="240">UNREGISTERED</text><text fill="#eeeeee" stroke="none" font-family="Arial" font-size="24px" font-style="normal" font-weight="normal" text-decoration="none" x="0" y="270">UNREGISTERED</text><text fill="#eeeeee" stroke="none" font-family="Arial" font-size="24px" font-style="normal" font-weight="normal" text-decoration="none" x="0" y="300">UNREGISTERED</text><text fill="#eeeeee" stroke="none" font-family="Arial" font-size="24px" font-style="normal" font-weight="normal" text-decoration="none" x="0" y="330">UNREGISTERED</text><text fill="#eeeeee" stroke="none" font-family="Arial" font-size="24px" font-style="normal" font-weight="normal" text-decoration="none" x="0" y="360">UNREGISTERED</text><text fill="#eeeeee" stroke="none" font-family="Arial" font-size="24px" font-style="normal" font-weight="normal" text-decoration="none" x="0" y="390">UNREGISTERED</text><text fill="#eeeeee" stroke="none" font-family="Arial" font-size="24px" font-style="normal" font-weight="normal" text-decoration="none" x="0" y="420">UNREGISTERED</text><text fill="#eeeeee" stroke="none" font-family="Arial" font-size="24px" font-style="normal" font-weight="normal" text-decoration="none" x="0" y="450">UNREGISTERED</text><text fill="#eeeeee" stroke="none" font-family="Arial" font-size="24px" font-style="normal" font-weight="normal" text-decoration="none" x="0" y="480">UNREGISTERED</text><text fill="#eeeeee" stroke="none" font-family="Arial" font-size="24px" font-style="normal" font-weight="normal" text-decoration="none" x="0" y="510">UNREGISTERED</text><text fill="#eeeeee" stroke="none" font-family="Arial" font-size="24px" font-style="normal" font-weight="normal" text-decoration="none" x="0" y="540">UNREGISTERED</text><text fill="#eeeeee" stroke="none" font-family="Arial" font-size="24px" font-style="normal" font-weight="normal" text-decoration="none" x="0" y="570">UNREGISTERED</text><text fill="#eeeeee" stroke="none" font-family="Arial" font-size="24px" font-style="normal" font-weight="normal" text-decoration="none" x="200" y="0">UNREGISTERED</text><text fill="#eeeeee" stroke="none" font-family="Arial" font-size="24px" font-style="normal" font-weight="normal" text-decoration="none" x="200" y="30">UNREGISTERED</text><text fill="#eeeeee" stroke="none" font-family="Arial" font-size="24px" font-style="normal" font-weight="normal" text-decoration="none" x="200" y="60">UNREGISTERED</text><text fill="#eeeeee" stroke="none" font-family="Arial" font-size="24px" font-style="normal" font-weight="normal" text-decoration="none" x="200" y="90">UNREGISTERED</text><text fill="#eeeeee" stroke="none" font-family="Arial" font-size="24px" font-style="normal" font-weight="normal" text-decoration="none" x="200" y="120">UNREGISTERED</text><text fill="#eeeeee" stroke="none" font-family="Arial" font-size="24px" font-style="normal" font-weight="normal" text-decoration="none" x="200" y="150">UNREGISTERED</text><text fill="#eeeeee" stroke="none" font-family="Arial" font-size="24px" font-style="normal" font-weight="normal" text-decoration="none" x="200" y="180">UNREGISTERED</text><text fill="#eeeeee" stroke="none" font-family="Arial" font-size="24px" font-style="normal" font-weight="normal" text-decoration="none" x="200" y="210">UNREGISTERED</text><text fill="#eeeeee" stroke="none" font-family="Arial" font-size="24px" font-style="normal" font-weight="normal" text-decoration="none" x="200" y="240">UNREGISTERED</text><text fill="#eeeeee" stroke="none" font-family="Arial" font-size="24px" font-style="normal" font-weight="normal" text-decoration="none" x="200" y="270">UNREGISTERED</text><text fill="#eeeeee" stroke="none" font-family="Arial" font-size="24px" font-style="normal" font-weight="normal" text-decoration="none" x="200" y="300">UNREGISTERED</text><text fill="#eeeeee" stroke="none" font-family="Arial" font-size="24px" font-style="normal" font-weight="normal" text-decoration="none" x="200" y="330">UNREGISTERED</text><text fill="#eeeeee" stroke="none" font-family="Arial" font-size="24px" font-style="normal" font-weight="normal" text-decoration="none" x="200" y="360">UNREGISTERED</text><text fill="#eeeeee" stroke="none" font-family="Arial" font-size="24px" font-style="normal" font-weight="normal" text-decoration="none" x="200" y="390">UNREGISTERED</text><text fill="#eeeeee" stroke="none" font-family="Arial" font-size="24px" font-style="normal" font-weight="normal" text-decoration="none" x="200" y="420">UNREGISTERED</text><text fill="#eeeeee" stroke="none" font-family="Arial" font-size="24px" font-style="normal" font-weight="normal" text-decoration="none" x="200" y="450">UNREGISTERED</text><text fill="#eeeeee" stroke="none" font-family="Arial" font-size="24px" font-style="normal" font-weight="normal" text-decoration="none" x="200" y="480">UNREGISTERED</text><text fill="#eeeeee" stroke="none" font-family="Arial" font-size="24px" font-style="normal" font-weight="normal" text-decoration="none" x="200" y="510">UNREGISTERED</text><text fill="#eeeeee" stroke="none" font-family="Arial" font-size="24px" font-style="normal" font-weight="normal" text-decoration="none" x="200" y="540">UNREGISTERED</text><text fill="#eeeeee" stroke="none" font-family="Arial" font-size="24px" font-style="normal" font-weight="normal" text-decoration="none" x="200" y="570">UNREGISTERED</text><text fill="#eeeeee" stroke="none" font-family="Arial" font-size="24px" font-style="normal" font-weight="normal" text-decoration="none" x="400" y="0">UNREGISTERED</text><text fill="#eeeeee" stroke="none" font-family="Arial" font-size="24px" font-style="normal" font-weight="normal" text-decoration="none" x="400" y="30">UNREGISTERED</text><text fill="#eeeeee" stroke="none" font-family="Arial" font-size="24px" font-style="normal" font-weight="normal" text-decoration="none" x="400" y="60">UNREGISTERED</text><text fill="#eeeeee" stroke="none" font-family="Arial" font-size="24px" font-style="normal" font-weight="normal" text-decoration="none" x="400" y="90">UNREGISTERED</text><text fill="#eeeeee" stroke="none" font-family="Arial" font-size="24px" font-style="normal" font-weight="normal" text-decoration="none" x="400" y="120">UNREGISTERED</text><text fill="#eeeeee" stroke="none" font-family="Arial" font-size="24px" font-style="normal" font-weight="normal" text-decoration="none" x="400" y="150">UNREGISTERED</text><text fill="#eeeeee" stroke="none" font-family="Arial" font-size="24px" font-style="normal" font-weight="normal" text-decoration="none" x="400" y="180">UNREGISTERED</text><text fill="#eeeeee" stroke="none" font-family="Arial" font-size="24px" font-style="normal" font-weight="normal" text-decoration="none" x="400" y="210">UNREGISTERED</text><text fill="#eeeeee" stroke="none" font-family="Arial" font-size="24px" font-style="normal" font-weight="normal" text-decoration="none" x="400" y="240">UNREGISTERED</text><text fill="#eeeeee" stroke="none" font-family="Arial" font-size="24px" font-style="normal" font-weight="normal" text-decoration="none" x="400" y="270">UNREGISTERED</text><text fill="#eeeeee" stroke="none" font-family="Arial" font-size="24px" font-style="normal" font-weight="normal" text-decoration="none" x="400" y="300">UNREGISTERED</text><text fill="#eeeeee" stroke="none" font-family="Arial" font-size="24px" font-style="normal" font-weight="normal" text-decoration="none" x="400" y="330">UNREGISTERED</text><text fill="#eeeeee" stroke="none" font-family="Arial" font-size="24px" font-style="normal" font-weight="normal" text-decoration="none" x="400" y="360">UNREGISTERED</text><text fill="#eeeeee" stroke="none" font-family="Arial" font-size="24px" font-style="normal" font-weight="normal" text-decoration="none" x="400" y="390">UNREGISTERED</text><text fill="#eeeeee" stroke="none" font-family="Arial" font-size="24px" font-style="normal" font-weight="normal" text-decoration="none" x="400" y="420">UNREGISTERED</text><text fill="#eeeeee" stroke="none" font-family="Arial" font-size="24px" font-style="normal" font-weight="normal" text-decoration="none" x="400" y="450">UNREGISTERED</text><text fill="#eeeeee" stroke="none" font-family="Arial" font-size="24px" font-style="normal" font-weight="normal" text-decoration="none" x="400" y="480">UNREGISTERED</text><text fill="#eeeeee" stroke="none" font-family="Arial" font-size="24px" font-style="normal" font-weight="normal" text-decoration="none" x="400" y="510">UNREGISTERED</text><text fill="#eeeeee" stroke="none" font-family="Arial" font-size="24px" font-style="normal" font-weight="normal" text-decoration="none" x="400" y="540">UNREGISTERED</text><text fill="#eeeeee" stroke="none" font-family="Arial" font-size="24px" font-style="normal" font-weight="normal" text-decoration="none" x="400" y="570">UNREGISTERED</text><g transform="translate(-386,-150) scale(1,1)"><rect fill="#C0C0C0" stroke="none" x="479" y="167" width="448" height="560" opacity="0.2"/></g><g transform="translate(-386,-150) scale(1,1)"><rect fill="#ffffff" stroke="none" x="472" y="160" width="448" height="560"/></g><g transform="translate(-386,-150) scale(1,1)"><path fill="none" stroke="#000000" d="M 472 160 L 920 160 L 920 720 L 472 720 L 472 160 Z Z" stroke-miterlimit="10"/></g><g transform="translate(-386,-150) scale(1,1)"><g><path fill="none" stroke="none"/><text fill="#000000" stroke="none" font-family="Arial" font-size="13px" font-style="normal" font-weight="bold" text-decoration="none" x="674.6845703125" y="179.5">Monefy</text></g></g><g transform="translate(-386,-150) scale(1,1)"><path fill="#ffffff" stroke="none" d="M 412.40935031960225 287.18 C 412.40935031960225 282.386167936 416.29519264454774 278.5 421.088623046875 278.5 C 425.88205344920226 278.5 429.76789577414775 282.386167936 429.76789577414775 287.18 C 429.76789577414775 291.973832064 425.88205344920226 295.86 421.088623046875 295.86 C 416.29519264454774 295.86 412.40935031960225 291.973832064 412.40935031960225 287.18 Z"/></g><g transform="translate(-386,-150) scale(1,1)"><path fill="none" stroke="#000000" d="M 412.40935031960225 287.18 C 412.40935031960225 282.386167936 416.29519264454774 278.5 421.088623046875 278.5 C 425.88205344920226 278.5 429.76789577414775 282.386167936 429.76789577414775 287.18 C 429.76789577414775 291.973832064 425.88205344920226 295.86 421.088623046875 295.86 C 416.29519264454774 295.86 412.40935031960225 291.973832064 412.40935031960225 287.18 Z" stroke-miterlimit="10"/></g><g transform="translate(-386,-150) scale(1,1)"><path fill="none" stroke="#000000" d="M 421.088623046875 295.86 L 421.088623046875 313.14" stroke-miterlimit="10"/></g><g transform="translate(-386,-150) scale(1,1)"><path fill="none" stroke="#000000" d="M 411.89880486505683 302.34 L 430.27844122869317 302.34" stroke-miterlimit="10"/></g><g transform="translate(-386,-150) scale(1,1)"><path fill="none" stroke="#000000" d="M 421.088623046875 313.14 L 408.32498668323865 330.5" stroke-miterlimit="10"/></g><g transform="translate(-386,-150) scale(1,1)"><path fill="none" stroke="#000000" d="M 421.088623046875 313.14 L 433.85225941051135 330.5" stroke-miterlimit="10"/></g><g transform="translate(-386,-150) scale(1,1)"><g><path fill="none" stroke="none"/><text fill="#000000" stroke="none" font-family="Arial" font-size="13px" font-style="normal" font-weight="bold" text-decoration="none" x="407.364990234375" y="351">User</text></g></g><g transform="translate(-386,-150) scale(1,1)"><path fill="#ffffff" stroke="none" d="M 412.40935031960225 414.68 C 412.40935031960225 409.886167936 416.29519264454774 406 421.088623046875 406 C 425.88205344920226 406 429.76789577414775 409.886167936 429.76789577414775 414.68 C 429.76789577414775 419.473832064 425.88205344920226 423.36 421.088623046875 423.36 C 416.29519264454774 423.36 412.40935031960225 419.473832064 412.40935031960225 414.68 Z"/></g><g transform="translate(-386,-150) scale(1,1)"><path fill="none" stroke="#000000" d="M 412.40935031960225 414.68 C 412.40935031960225 409.886167936 416.29519264454774 406 421.088623046875 406 C 425.88205344920226 406 429.76789577414775 409.886167936 429.76789577414775 414.68 C 429.76789577414775 419.473832064 425.88205344920226 423.36 421.088623046875 423.36 C 416.29519264454774 423.36 412.40935031960225 419.473832064 412.40935031960225 414.68 Z" stroke-miterlimit="10"/></g><g transform="translate(-386,-150) scale(1,1)"><path fill="none" stroke="#000000" d="M 421.088623046875 423.36 L 421.088623046875 440.64" stroke-miterlimit="10"/></g><g transform="translate(-386,-150) scale(1,1)"><path fill="none" stroke="#000000" d="M 411.89880486505683 429.84 L 430.27844122869317 429.84" stroke-miterlimit="10"/></g><g transform="translate(-386,-150) scale(1,1)"><path fill="none" stroke="#000000" d="M 421.088623046875 440.64 L 408.32498668323865 458" stroke-miterlimit="10"/></g><g transform="translate(-386,-150) scale(1,1)"><path fill="none" stroke="#000000" d="M 421.088623046875 440.64 L 433.85225941051135 458" stroke-miterlimit="10"/></g><g transform="translate(-386,-150) scale(1,1)"><g><path fill="none" stroke="none"/><text fill="#000000" stroke="none" font-family="Arial" font-size="13px" font-style="normal" font-weight="bold" text-decoration="none" x="402.66455078125" y="478.5">Admin</text></g></g><g transform="translate(-386,-150) scale(1,1)"><path fill="#C0C0C0" stroke="none" d="M 631.17724609375 304 C 631.17724609375 294.6111584 665.65131649375 287 708.17724609375 287 C 750.70317569375 287 785.17724609375 294.6111584 785.17724609375 304 C 785.17724609375 313.3888416 750.70317569375 321 708.17724609375 321 C 665.65131649375 321 631.17724609375 313.3888416 631.17724609375 304 Z" opacity="0.2"/></g><g transform="translate(-386,-150) scale(1,1)"><path fill="#ffffff" stroke="none" d="M 624.17724609375 297 C 624.17724609375 287.6111584 658.65131649375 280 701.17724609375 280 C 743.70317569375 280 778.17724609375 287.6111584 778.17724609375 297 C 778.17724609375 306.3888416 743.70317569375 314 701.17724609375 314 C 658.65131649375 314 624.17724609375 306.3888416 624.17724609375 297 Z"/></g><g transform="translate(-386,-150) scale(1,1)"><path fill="none" stroke="#000000" d="M 624.17724609375 297 C 624.17724609375 287.6111584 658.65131649375 280 701.17724609375 280 C 743.70317569375 280 778.17724609375 287.6111584 778.17724609375 297 C 778.17724609375 306.3888416 743.70317569375 314 701.17724609375 314 C 658.65131649375 314 624.17724609375 306.3888416 624.17724609375 297 Z" stroke-miterlimit="10"/></g><g transform="translate(-386,-150) scale(1,1)"><g><path fill="none" stroke="none"/><text fill="#000000" stroke="none" font-family="Arial" font-size="13px" font-style="normal" font-weight="bold" text-decoration="none" x="653.966552734375" y="304">View Categories</text></g></g><g transform="translate(-386,-150) scale(1,1)"><path fill="#C0C0C0" stroke="none" d="M 634.17724609375 368 C 634.17724609375 358.6111584 667.30817089375 351 708.17724609375 351 C 749.04632129375 351 782.17724609375 358.6111584 782.17724609375 368 C 782.17724609375 377.3888416 749.04632129375 385 708.17724609375 385 C 667.30817089375 385 634.17724609375 377.3888416 634.17724609375 368 Z" opacity="0.2"/></g><g transform="translate(-386,-150) scale(1,1)"><path fill="#ffffff" stroke="none" d="M 627.17724609375 361 C 627.17724609375 351.6111584 660.30817089375 344 701.17724609375 344 C 742.04632129375 344 775.17724609375 351.6111584 775.17724609375 361 C 775.17724609375 370.3888416 742.04632129375 378 701.17724609375 378 C 660.30817089375 378 627.17724609375 370.3888416 627.17724609375 361 Z"/></g><g transform="translate(-386,-150) scale(1,1)"><path fill="none" stroke="#000000" d="M 627.17724609375 361 C 627.17724609375 351.6111584 660.30817089375 344 701.17724609375 344 C 742.04632129375 344 775.17724609375 351.6111584 775.17724609375 361 C 775.17724609375 370.3888416 742.04632129375 378 701.17724609375 378 C 660.30817089375 378 627.17724609375 370.3888416 627.17724609375 361 Z" stroke-miterlimit="10"/></g><g transform="translate(-386,-150) scale(1,1)"><g><path fill="none" stroke="none"/><text fill="#000000" stroke="none" font-family="Arial" font-size="13px" font-style="normal" font-weight="bold" text-decoration="none" x="656.740478515625" y="368">Insert Category</text></g></g><g transform="translate(-386,-150) scale(1,1)"><path fill="#C0C0C0" stroke="none" d="M 642.17724609375 429 C 642.17724609375 419.6111584 671.72644929375 412 708.17724609375 412 C 744.62804289375 412 774.17724609375 419.6111584 774.17724609375 429 C 774.17724609375 438.3888416 744.62804289375 446 708.17724609375 446 C 671.72644929375 446 642.17724609375 438.3888416 642.17724609375 429 Z" opacity="0.2"/></g><g transform="translate(-386,-150) scale(1,1)"><path fill="#ffffff" stroke="none" d="M 635.17724609375 422 C 635.17724609375 412.6111584 664.72644929375 405 701.17724609375 405 C 737.62804289375 405 767.17724609375 412.6111584 767.17724609375 422 C 767.17724609375 431.3888416 737.62804289375 439 701.17724609375 439 C 664.72644929375 439 635.17724609375 431.3888416 635.17724609375 422 Z"/></g><g transform="translate(-386,-150) scale(1,1)"><path fill="none" stroke="#000000" d="M 635.17724609375 422 C 635.17724609375 412.6111584 664.72644929375 405 701.17724609375 405 C 737.62804289375 405 767.17724609375 412.6111584 767.17724609375 422 C 767.17724609375 431.3888416 737.62804289375 439 701.17724609375 439 C 664.72644929375 439 635.17724609375 431.3888416 635.17724609375 422 Z" stroke-miterlimit="10"/></g><g transform="translate(-386,-150) scale(1,1)"><g><path fill="none" stroke="none"/><text fill="#000000" stroke="none" font-family="Arial" font-size="13px" font-style="normal" font-weight="bold" text-decoration="none" x="661.79638671875" y="429">Edit Category</text></g></g><g transform="translate(-386,-150) scale(1,1)"><path fill="#C0C0C0" stroke="none" d="M 631.67724609375 494 C 631.67724609375 484.6111584 665.92745889375 477 708.17724609375 477 C 750.42703329375 477 784.67724609375 484.6111584 784.67724609375 494 C 784.67724609375 503.3888416 750.42703329375 511 708.17724609375 511 C 665.92745889375 511 631.67724609375 503.3888416 631.67724609375 494 Z" opacity="0.2"/></g><g transform="translate(-386,-150) scale(1,1)"><path fill="#ffffff" stroke="none" d="M 624.67724609375 487 C 624.67724609375 477.6111584 658.92745889375 470 701.17724609375 470 C 743.42703329375 470 777.67724609375 477.6111584 777.67724609375 487 C 777.67724609375 496.3888416 743.42703329375 504 701.17724609375 504 C 658.92745889375 504 624.67724609375 496.3888416 624.67724609375 487 Z"/></g><g transform="translate(-386,-150) scale(1,1)"><path fill="none" stroke="#000000" d="M 624.67724609375 487 C 624.67724609375 477.6111584 658.92745889375 470 701.17724609375 470 C 743.42703329375 470 777.67724609375 477.6111584 777.67724609375 487 C 777.67724609375 496.3888416 743.42703329375 504 701.17724609375 504 C 658.92745889375 504 624.67724609375 496.3888416 624.67724609375 487 Z" stroke-miterlimit="10"/></g><g transform="translate(-386,-150) scale(1,1)"><g><path fill="none" stroke="none"/><text fill="#000000" stroke="none" font-family="Arial" font-size="13px" font-style="normal" font-weight="bold" text-decoration="none" x="654.207763671875" y="494">Delete Category</text></g></g><g transform="translate(-386,-150) scale(1,1)"><path fill="none" stroke="#000000" d="M 447 306 Q 509 280 623 290" stroke-miterlimit="10"/></g><g transform="translate(-386,-150) scale(1,1)"><path fill="none" stroke="#000000" d="M 447 423 Q 496 384 626 369" stroke-miterlimit="10"/></g><g transform="translate(-386,-150) scale(1,1)"><path fill="none" stroke="#000000" d="M 421 444 Q 447 431 454.5 427 Q 462 423 634 422" stroke-miterlimit="10"/></g><g transform="translate(-386,-150) scale(1,1)"><path fill="none" stroke="#000000" d="M 421 444 Q 447 472 454.5 480 Q 462 488 624 487" stroke-miterlimit="10"/></g><g transform="translate(-386,-150) scale(1,1)"><path fill="none" stroke="#000000" d="M 445 404 Q 462 375 646 315" stroke-miterlimit="10"/></g><g transform="translate(-386,-150) scale(1,1)"><path fill="#C0C0C0" stroke="none" d="M 638.67724609375 559 C 638.67724609375 549.6111584 669.79345249375 542 708.17724609375 542 C 746.56103969375 542 777.67724609375 549.6111584 777.67724609375 559 C 777.67724609375 568.3888416 746.56103969375 576 708.17724609375 576 C 669.79345249375 576 638.67724609375 568.3888416 638.67724609375 559 Z" opacity="0.2"/></g><g transform="translate(-386,-150) scale(1,1)"><path fill="#ffffff" stroke="none" d="M 631.67724609375 552 C 631.67724609375 542.6111584 662.79345249375 535 701.17724609375 535 C 739.56103969375 535 770.67724609375 542.6111584 770.67724609375 552 C 770.67724609375 561.3888416 739.56103969375 569 701.17724609375 569 C 662.79345249375 569 631.67724609375 561.3888416 631.67724609375 552 Z"/></g><g transform="translate(-386,-150) scale(1,1)"><path fill="none" stroke="#000000" d="M 631.67724609375 552 C 631.67724609375 542.6111584 662.79345249375 535 701.17724609375 535 C 739.56103969375 535 770.67724609375 542.6111584 770.67724609375 552 C 770.67724609375 561.3888416 739.56103969375 569 701.17724609375 569 C 662.79345249375 569 631.67724609375 561.3888416 631.67724609375 552 Z" stroke-miterlimit="10"/></g><g transform="translate(-386,-150) scale(1,1)"><g><path fill="none" stroke="none"/><text fill="#000000" stroke="none" font-family="Arial" font-size="13px" font-style="normal" font-weight="bold" text-decoration="none" x="659.025634765625" y="559">View Category</text></g></g><g transform="translate(-386,-150) scale(1,1)"><path fill="none" stroke="#000000" d="M 437 485 Q 437 485 449.5 519 Q 462 553 631 552" stroke-miterlimit="10"/></g></g></svg>