<svg version="1.1" xmlns="http://www.w3.org/2000/svg" xmlns:xlink="http://www.w3.org/1999/xlink" width="440" height="492"><defs/><g><text fill="#eeeeee" stroke="none" font-family="Arial" font-size="24px" font-style="normal" font-weight="normal" text-decoration="none" x="0" y="0">UNREGISTERED</text><text fill="#eeeeee" stroke="none" font-family="Arial" font-size="24px" font-style="normal" font-weight="normal" text-decoration="none" x="0" y="30">UNREGISTERED</text><text fill="#eeeeee" stroke="none" font-family="Arial" font-size="24px" font-style="normal" font-weight="normal" text-decoration="none" x="0" y="60">UNREGISTERED</text><text fill="#eeeeee" stroke="none" font-family="Arial" font-size="24px" font-style="normal" font-weight="normal" text-decoration="none" x="0" y="90">UNREGISTERED</text><text fill="#eeeeee" stroke="none" font-family="Arial" font-size="24px" font-style="normal" font-weight="normal" text-decoration="none" x="0" y="120">UNREGISTERED</text><text fill="#eeeeee" stroke="none" font-family="Arial" font-size="24px" font-style="normal" font-weight="normal" text-decoration="none" x="0" y="150">UNREGISTERED</text><text fill="#eeeeee" stroke="none" font-family="Arial" font-size="24px" font-style="normal" font-weight="normal" text-decoration="none" x="0" y="180">UNREGISTERED</text><text fill="#eeeeee" stroke="none" font-family="Arial" font-size="24px" font-style="normal" font-weight="normal" text-decoration="none" x="0" y="210">UNREGISTERED</text><text fill="#eeeeee" stroke="none" font-family="Arial" font-size="24px" font-style="normal" font-weight="normal" text-decoration="none" x="0" y="240">UNREGISTERED</text><text fill="#eeeeee" stroke="none" font-family="Arial" font-size="24px" font-style="normal" font-weight="normal" text-decoration="none" x="0" y="270">UNREGISTERED</text><text fill="#eeeeee" stroke="none" font-family="Arial" font-size="24px" font-style="normal" font-weight="normal" text-decoration="none" x="0" y="300">UNREGISTERED</text><text fill="#eeeeee" stroke="none" font-family="Arial" font-size="24px" font-style="normal" font-weight="normal" text-decoration="none" x="0" y="330">UNREGISTERED</text><text fill="#eeeeee" stroke="none" font-family="Arial" font-size="24px" font-style="normal" font-weight="normal" text-decoration="none" x="0" y="360">UNREGISTERED</text><text fill="#eeeeee" stroke="none" font-family="Arial" font-size="24px" font-style="normal" font-weight="normal" text-decoration="none" x="0" y="390">UNREGISTERED</text><text fill="#eeeeee" stroke="none" font-family="Arial" font-size="24px" font-style="normal" font-weight="normal" text-decoration="none" x="0" y="420">UNREGISTERED</text><text fill="#eeeeee" stroke="none" font-family="Arial" font-size="24px" font-style="normal" font-weight="normal" text-decoration="none" x="0" y="450">UNREGISTERED</text><text fill="#eeeeee" stroke="none" font-family="Arial" font-size="24px" font-style="normal" font-weight="normal" text-decoration="none" x="0" y="480">UNREGISTERED</text><text fill="#eeeeee" stroke="none" font-family="Arial" font-size="24px" font-style="normal" font-weight="normal" text-decoration="none" x="200" y="0">UNREGISTERED</text><text fill="#eeeeee" stroke="none" font-family="Arial" font-size="24px" font-style="normal" font-weight="normal" text-decoration="none" x="200" y="30">UNREGISTERED</text><text fill="#eeeeee" stroke="none" font-family="Arial" font-size="24px" font-style="normal" font-weight="normal" text-decoration="none" x="200" y="60">UNREGISTERED</text><text fill="#eeeeee" stroke="none" font-family="Arial" font-size="24px" font-style="normal" font-weight="normal" text-decoration="none" x="200" y="90">UNREGISTERED</text><text fill="#eeeeee" stroke="none" font-family="Arial" font-size="24px" font-style="normal" font-weight="normal" text-decoration="none" x="200" y="120">UNREGISTERED</text><text fill="#eeeeee" stroke="none" font-family="Arial" font-size="24px" font-style="normal" font-weight="normal" text-decoration="none" x="200" y="150">UNREGISTERED</text><text fill="#eeeeee" stroke="none" font-family="Arial" font-size="24px" font-style="normal" font-weight="normal" text-decoration="none" x="200" y="180">UNREGISTERED</text><text fill="#eeeeee" stroke="none" font-family="Arial" font-size="24px" font-style="normal" font-weight="normal" text-decoration="none" x="200" y="210">UNREGISTERED</text><text fill="#eeeeee" stroke="none" font-family="Arial" font-size="24px" font-style="normal" font-weight="normal" text-decoration="none" x="200" y="240">UNREGISTERED</text><text fill="#eeeeee" stroke="none" font-family="Arial" font-size="24px" font-style="normal" font-weight="normal" text-decoration="none" x="200" y="270">UNREGISTERED</text><text fill="#eeeeee" stroke="none" font-family="Arial" font-size="24px" font-style="normal" font-weight="normal" text-decoration="none" x="200" y="300">UNREGISTERED</text><text fill="#eeeeee" stroke="none" font-family="Arial" font-size="24px" font-style="normal" font-weight="normal" text-decoration="none" x="200" y="330">UNREGISTERED</text><text fill="#eeeeee" stroke="none" font-family="Arial" font-size="24px" font-style="normal" font-weight="normal" text-decoration="none" x="200" y="360">UNREGISTERED</text><text fill="#eeeeee" stroke="none" font-family="Arial" font-size="24px" font-style="normal" font-weight="normal" text-decoration="none" x="200" y="390">UNREGISTERED</text><text fill="#eeeeee" stroke="none" font-family="Arial" font-size="24px" font-style="normal" font-weight="normal" text-decoration="none" x="200" y="420">UNREGISTERED</text><text fill="#eeeeee" stroke="none" font-family="Arial" font-size="24px" font-style="normal" font-weight="normal" text-decoration="none" x="200" y="450">UNREGISTERED</text><text fill="#eeeeee" stroke="none" font-family="Arial" font-size="24px" font-style="normal" font-weight="normal" text-decoration="none" x="200" y="480">UNREGISTERED</text><text fill="#eeeeee" stroke="none" font-family="Arial" font-size="24px" font-style="normal" font-weight="normal" text-decoration="none" x="400" y="0">UNREGISTERED</text><text fill="#eeeeee" stroke="none" font-family="Arial" font-size="24px" font-style="normal" font-weight="normal" text-decoration="none" x="400" y="30">UNREGISTERED</text><text fill="#eeeeee" stroke="none" font-family="Arial" font-size="24px" font-style="normal" font-weight="normal" text-decoration="none" x="400" y="60">UNREGISTERED</text><text fill="#eeeeee" stroke="none" font-family="Arial" font-size="24px" font-style="normal" font-weight="normal" text-decoration="none" x="400" y="90">UNREGISTERED</text><text fill="#eeeeee" stroke="none" font-family="Arial" font-size="24px" font-style="normal" font-weight="normal" text-decoration="none" x="400" y="120">UNREGISTERED</text><text fill="#eeeeee" stroke="none" font-family="Arial" font-size="24px" font-style="normal" font-weight="normal" text-decoration="none" x="400" y="150">UNREGISTERED</text><text fill="#eeeeee" stroke="none" font-family="Arial" font-size="24px" font-style="normal" font-weight="normal" text-decoration="none" x="400" y="180">UNREGISTERED</text><text fill="#eeeeee" stroke="none" font-family="Arial" font-size="24px" font-style="normal" font-weight="normal" text-decoration="none" x="400" y="210">UNREGISTERED</text><text fill="#eeeeee" stroke="none" font-family="Arial" font-size="24px" font-style="normal" font-weight="normal" text-decoration="none" x="400" y="240">UNREGISTERED</text><text fill="#eeeeee" stroke="none" font-family="Arial" font-size="24px" font-style="normal" font-weight="normal" text-decoration="none" x="400" y="270">UNREGISTERED</text><text fill="#eeeeee" stroke="none" font-family="Arial" font-size="24px" font-style="normal" font-weight="normal" text-decoration="none" x="400" y="300">UNREGISTERED</text><text fill="#eeeeee" stroke="none" font-family="Arial" font-size="24px" font-style="normal" font-weight="normal" text-decoration="none" x="400" y="330">UNREGISTERED</text><text fill="#eeeeee" stroke="none" font-family="Arial" font-size="24px" font-style="normal" font-weight="normal" text-decoration="none" x="400" y="360">UNREGISTERED</text><text fill="#eeeeee" stroke="none" font-family="Arial" font-size="24px" font-style="normal" font-weight="normal" text-decoration="none" x="400" y="390">UNREGISTERED</text><text fill="#eeeeee" stroke="none" font-family="Arial" font-size="24px" font-style="normal" font-weight="normal" text-decoration="none" x="400" y="420">UNREGISTERED</text><text fill="#eeeeee" stroke="none" font-family="Arial" font-size="24px" font-style="normal" font-weight="normal" text-decoration="none" x="400" y="450">UNREGISTERED</text><text fill="#eeeeee" stroke="none" font-family="Arial" font-size="24px" font-style="normal" font-weight="normal" text-decoration="none" x="400" y="480">UNREGISTERED</text><g transform="translate(-386,-150) scale(1,1)"><rect fill="#C0C0C0" stroke="none" x="463" y="167" width="360" height="472" opacity="0.2"/></g><g transform="translate(-386,-150) scale(1,1)"><rect fill="#ffffff" stroke="none" x="456" y="160" width="360" height="472"/></g><g transform="translate(-386,-150) scale(1,1)"><path fill="none" stroke="#000000" d="M 456 160 L 816 160 L 816 632 L 456 632 L 456 160 Z Z" stroke-miterlimit="10"/></g><g transform="translate(-386,-150) scale(1,1)"><g><path fill="none" stroke="none"/><text fill="#000000" stroke="none" font-family="Arial" font-size="13px" font-style="normal" font-weight="bold" text-decoration="none" x="614.6845703125" y="179.5">Monefy</text></g></g><g transform="translate(-386,-150) scale(1,1)"><path fill="#ffffff" stroke="none" d="M 406.27434055397725 352.18 C 406.27434055397725 347.386167936 410.16018287892274 343.5 414.95361328125 343.5 C 419.74704368357726 343.5 423.63288600852275 347.386167936 423.63288600852275 352.18 C 423.63288600852275 356.973832064 419.74704368357726 360.86 414.95361328125 360.86 C 410.16018287892274 360.86 406.27434055397725 356.973832064 406.27434055397725 352.18 Z"/></g><g transform="translate(-386,-150) scale(1,1)"><path fill="none" stroke="#000000" d="M 406.27434055397725 352.18 C 406.27434055397725 347.386167936 410.16018287892274 343.5 414.95361328125 343.5 C 419.74704368357726 343.5 423.63288600852275 347.386167936 423.63288600852275 352.18 C 423.63288600852275 356.973832064 419.74704368357726 360.86 414.95361328125 360.86 C 410.16018287892274 360.86 406.27434055397725 356.973832064 406.27434055397725 352.18 Z" stroke-miterlimit="10"/></g><g transform="translate(-386,-150) scale(1,1)"><path fill="none" stroke="#000000" d="M 414.95361328125 360.86 L 414.95361328125 378.14" stroke-miterlimit="10"/></g><g transform="translate(-386,-150) scale(1,1)"><path fill="none" stroke="#000000" d="M 405.76379509943183 367.34 L 424.14343146306817 367.34" stroke-miterlimit="10"/></g><g transform="translate(-386,-150) scale(1,1)"><path fill="none" stroke="#000000" d="M 414.95361328125 378.14 L 402.18997691761365 395.5" stroke-miterlimit="10"/></g><g transform="translate(-386,-150) scale(1,1)"><path fill="none" stroke="#000000" d="M 414.95361328125 378.14 L 427.71724964488635 395.5" stroke-miterlimit="10"/></g><g transform="translate(-386,-150) scale(1,1)"><g><path fill="none" stroke="none"/><text fill="#000000" stroke="none" font-family="Arial" font-size="13px" font-style="normal" font-weight="bold" text-decoration="none" x="401.22998046875" y="416">User</text></g></g><g transform="translate(-386,-150) scale(1,1)"><path fill="#C0C0C0" stroke="none" d="M 580.4072265625 324 C 580.4072265625 314.6111584 612.4188633625 307 651.9072265625 307 C 691.3955897625 307 723.4072265625 314.6111584 723.4072265625 324 C 723.4072265625 333.3888416 691.3955897625 341 651.9072265625 341 C 612.4188633625 341 580.4072265625 333.3888416 580.4072265625 324 Z" opacity="0.2"/></g><g transform="translate(-386,-150) scale(1,1)"><path fill="#ffffff" stroke="none" d="M 573.4072265625 317 C 573.4072265625 307.6111584 605.4188633625 300 644.9072265625 300 C 684.3955897625 300 716.4072265625 307.6111584 716.4072265625 317 C 716.4072265625 326.3888416 684.3955897625 334 644.9072265625 334 C 605.4188633625 334 573.4072265625 326.3888416 573.4072265625 317 Z"/></g><g transform="translate(-386,-150) scale(1,1)"><path fill="none" stroke="#000000" d="M 573.4072265625 317 C 573.4072265625 307.6111584 605.4188633625 300 644.9072265625 300 C 684.3955897625 300 716.4072265625 307.6111584 716.4072265625 317 C 716.4072265625 326.3888416 684.3955897625 334 644.9072265625 334 C 605.4188633625 334 573.4072265625 326.3888416 573.4072265625 317 Z" stroke-miterlimit="10"/></g><g transform="translate(-386,-150) scale(1,1)"><g><path fill="none" stroke="none"/><text fill="#000000" stroke="none" font-family="Arial" font-size="13px" font-style="normal" font-weight="bold" text-decoration="none" x="602.393798828125" y="324">View Accounts</text></g></g><g transform="translate(-386,-150) scale(1,1)"><path fill="#C0C0C0" stroke="none" d="M 581.4072265625 389 C 581.4072265625 379.6111584 612.9711481625 372 651.9072265625 372 C 690.8433049625 372 722.4072265625 379.6111584 722.4072265625 389 C 722.4072265625 398.3888416 690.8433049625 406 651.9072265625 406 C 612.9711481625 406 581.4072265625 398.3888416 581.4072265625 389 Z" opacity="0.2"/></g><g transform="translate(-386,-150) scale(1,1)"><path fill="#ffffff" stroke="none" d="M 574.4072265625 382 C 574.4072265625 372.6111584 605.9711481625 365 644.9072265625 365 C 683.8433049625 365 715.4072265625 372.6111584 715.4072265625 382 C 715.4072265625 391.3888416 683.8433049625 399 644.9072265625 399 C 605.9711481625 399 574.4072265625 391.3888416 574.4072265625 382 Z"/></g><g transform="translate(-386,-150) scale(1,1)"><path fill="none" stroke="#000000" d="M 574.4072265625 382 C 574.4072265625 372.6111584 605.9711481625 365 644.9072265625 365 C 683.8433049625 365 715.4072265625 372.6111584 715.4072265625 382 C 715.4072265625 391.3888416 683.8433049625 399 644.9072265625 399 C 605.9711481625 399 574.4072265625 391.3888416 574.4072265625 382 Z" stroke-miterlimit="10"/></g><g transform="translate(-386,-150) scale(1,1)"><g><path fill="none" stroke="none"/><text fill="#000000" stroke="none" font-family="Arial" font-size="13px" font-style="normal" font-weight="bold" text-decoration="none" x="603.358642578125" y="389">Insert Account</text></g></g><g transform="translate(-386,-150) scale(1,1)"><path fill="#C0C0C0" stroke="none" d="M 588.9072265625 454 C 588.9072265625 444.6111584 617.1132841625 437 651.9072265625 437 C 686.7011689625 437 714.9072265625 444.6111584 714.9072265625 454 C 714.9072265625 463.3888416 686.7011689625 471 651.9072265625 471 C 617.1132841625 471 588.9072265625 463.3888416 588.9072265625 454 Z" opacity="0.2"/></g><g transform="translate(-386,-150) scale(1,1)"><path fill="#ffffff" stroke="none" d="M 581.9072265625 447 C 581.9072265625 437.6111584 610.1132841625 430 644.9072265625 430 C 679.7011689625 430 707.9072265625 437.6111584 707.9072265625 447 C 707.9072265625 456.3888416 679.7011689625 464 644.9072265625 464 C 610.1132841625 464 581.9072265625 456.3888416 581.9072265625 447 Z"/></g><g transform="translate(-386,-150) scale(1,1)"><path fill="none" stroke="#000000" d="M 581.9072265625 447 C 581.9072265625 437.6111584 610.1132841625 430 644.9072265625 430 C 679.7011689625 430 707.9072265625 437.6111584 707.9072265625 447 C 707.9072265625 456.3888416 679.7011689625 464 644.9072265625 464 C 610.1132841625 464 581.9072265625 456.3888416 581.9072265625 447 Z" stroke-miterlimit="10"/></g><g transform="translate(-386,-150) scale(1,1)"><g><path fill="none" stroke="none"/><text fill="#000000" stroke="none" font-family="Arial" font-size="13px" font-style="normal" font-weight="bold" text-decoration="none" x="608.41455078125" y="454">Edit Account</text></g></g><g transform="translate(-386,-150) scale(1,1)"><path fill="#C0C0C0" stroke="none" d="M 585.4072265625 259 C 585.4072265625 249.6111584 615.1802873624999 242 651.9072265625 242 C 688.6341657625001 242 718.4072265625 249.6111584 718.4072265625 259 C 718.4072265625 268.3888416 688.6341657625001 276 651.9072265625 276 C 615.1802873624999 276 585.4072265625 268.3888416 585.4072265625 259 Z" opacity="0.2"/></g><g transform="translate(-386,-150) scale(1,1)"><path fill="#ffffff" stroke="none" d="M 578.4072265625 252 C 578.4072265625 242.6111584 608.1802873624999 235 644.9072265625 235 C 681.6341657625001 235 711.4072265625 242.6111584 711.4072265625 252 C 711.4072265625 261.3888416 681.6341657625001 269 644.9072265625 269 C 608.1802873624999 269 578.4072265625 261.3888416 578.4072265625 252 Z"/></g><g transform="translate(-386,-150) scale(1,1)"><path fill="none" stroke="#000000" d="M 578.4072265625 252 C 578.4072265625 242.6111584 608.1802873624999 235 644.9072265625 235 C 681.6341657625001 235 711.4072265625 242.6111584 711.4072265625 252 C 711.4072265625 261.3888416 681.6341657625001 269 644.9072265625 269 C 608.1802873624999 269 578.4072265625 261.3888416 578.4072265625 252 Z" stroke-miterlimit="10"/></g><g transform="translate(-386,-150) scale(1,1)"><g><path fill="none" stroke="none"/><text fill="#000000" stroke="none" font-family="Arial" font-size="13px" font-style="normal" font-weight="bold" text-decoration="none" x="605.643798828125" y="259">View Account</text></g></g><g transform="translate(-386,-150) scale(1,1)"><path fill="#C0C0C0" stroke="none" d="M 578.9072265625 519 C 578.9072265625 509.6111584 611.5904361625 502 651.9072265625 502 C 692.2240169625 502 724.9072265625 509.6111584 724.9072265625 519 C 724.9072265625 528.3888416 692.2240169625 536 651.9072265625 536 C 611.5904361625 536 578.9072265625 528.3888416 578.9072265625 519 Z" opacity="0.2"/></g><g transform="translate(-386,-150) scale(1,1)"><path fill="#ffffff" stroke="none" d="M 571.9072265625 512 C 571.9072265625 502.6111584 604.5904361625 495 644.9072265625 495 C 685.2240169625 495 717.9072265625 502.6111584 717.9072265625 512 C 717.9072265625 521.3888416 685.2240169625 529 644.9072265625 529 C 604.5904361625 529 571.9072265625 521.3888416 571.9072265625 512 Z"/></g><g transform="translate(-386,-150) scale(1,1)"><path fill="none" stroke="#000000" d="M 571.9072265625 512 C 571.9072265625 502.6111584 604.5904361625 495 644.9072265625 495 C 685.2240169625 495 717.9072265625 502.6111584 717.9072265625 512 C 717.9072265625 521.3888416 685.2240169625 529 644.9072265625 529 C 604.5904361625 529 571.9072265625 521.3888416 571.9072265625 512 Z" stroke-miterlimit="10"/></g><g transform="translate(-386,-150) scale(1,1)"><g><path fill="none" stroke="none"/><text fill="#000000" stroke="none" font-family="Arial" font-size="13px" font-style="normal" font-weight="bold" text-decoration="none" x="600.825927734375" y="519">Delete Account</text></g></g><g transform="translate(-386,-150) scale(1,1)"><path fill="none" stroke="#000000" d="M 425 342 Q 450 253 577 252" stroke-miterlimit="10"/></g><g transform="translate(-386,-150) scale(1,1)"><path fill="none" stroke="#000000" d="M 435 346 Q 435 346 442.5 332 Q 450 318 572 317" stroke-miterlimit="10"/></g><g transform="translate(-386,-150) scale(1,1)"><path fill="none" stroke="#000000" d="M 435 383 Q 435 383 442.5 383 Q 450 383 573 382" stroke-miterlimit="10"/></g><g transform="translate(-386,-150) scale(1,1)"><path fill="none" stroke="#000000" d="M 435 419 Q 435 419 442.5 433.5 Q 450 448 581 447" stroke-miterlimit="10"/></g><g transform="translate(-386,-150) scale(1,1)"><path fill="none" stroke="#000000" d="M 426 423 Q 426 423 438 468 Q 450 513 571 512" stroke-miterlimit="10"/></g></g></svg>