<svg version="1.1" xmlns="http://www.w3.org/2000/svg" xmlns:xlink="http://www.w3.org/1999/xlink" width="504" height="492"><defs/><g><text fill="#eeeeee" stroke="none" font-family="Arial" font-size="24px" font-style="normal" font-weight="normal" text-decoration="none" x="0" y="0">UNREGISTERED</text><text fill="#eeeeee" stroke="none" font-family="Arial" font-size="24px" font-style="normal" font-weight="normal" text-decoration="none" x="0" y="30">UNREGISTERED</text><text fill="#eeeeee" stroke="none" font-family="Arial" font-size="24px" font-style="normal" font-weight="normal" text-decoration="none" x="0" y="60">UNREGISTERED</text><text fill="#eeeeee" stroke="none" font-family="Arial" font-size="24px" font-style="normal" font-weight="normal" text-decoration="none" x="0" y="90">UNREGISTERED</text><text fill="#eeeeee" stroke="none" font-family="Arial" font-size="24px" font-style="normal" font-weight="normal" text-decoration="none" x="0" y="120">UNREGISTERED</text><text fill="#eeeeee" stroke="none" font-family="Arial" font-size="24px" font-style="normal" font-weight="normal" text-decoration="none" x="0" y="150">UNREGISTERED</text><text fill="#eeeeee" stroke="none" font-family="Arial" font-size="24px" font-style="normal" font-weight="normal" text-decoration="none" x="0" y="180">UNREGISTERED</text><text fill="#eeeeee" stroke="none" font-family="Arial" font-size="24px" font-style="normal" font-weight="normal" text-decoration="none" x="0" y="210">UNREGISTERED</text><text fill="#eeeeee" stroke="none" font-family="Arial" font-size="24px" font-style="normal" font-weight="normal" text-decoration="none" x="0" y="240">UNREGISTERED</text><text fill="#eeeeee" stroke="none" font-family="Arial" font-size="24px" font-style="normal" font-weight="normal" text-decoration="none" x="0" y="270">UNREGISTERED</text><text fill="#eeeeee" stroke="none" font-family="Arial" font-size="24px" font-style="normal" font-weight="normal" text-decoration="none" x="0" y="300">UNREGISTERED</text><text fill="#eeeeee" stroke="none" font-family="Arial" font-size="24px" font-style="normal" font-weight="normal" text-decoration="none" x="0" y="330">UNREGISTERED</text><text fill="#eeeeee" stroke="none" font-family="Arial" font-size="24px" font-style="normal" font-weight="normal" text-decoration="none" x="0" y="360">UNREGISTERED</text><text fill="#eeeeee" stroke="none" font-family="Arial" font-size="24px" font-style="normal" font-weight="normal" text-decoration="none" x="0" y="390">UNREGISTERED</text><text fill="#eeeeee" stroke="none" font-family="Arial" font-size="24px" font-style="normal" font-weight="normal" text-decoration="none" x="0" y="420">UNREGISTERED</text><text fill="#eeeeee" stroke="none" font-family="Arial" font-size="24px" font-style="normal" font-weight="normal" text-decoration="none" x="0" y="450">UNREGISTERED</text><text fill="#eeeeee" stroke="none" font-family="Arial" font-size="24px" font-style="normal" font-weight="normal" text-decoration="none" x="0" y="480">UNREGISTERED</text><text fill="#eeeeee" stroke="none" font-family="Arial" font-size="24px" font-style="normal" font-weight="normal" text-decoration="none" x="200" y="0">UNREGISTERED</text><text fill="#eeeeee" stroke="none" font-family="Arial" font-size="24px" font-style="normal" font-weight="normal" text-decoration="none" x="200" y="30">UNREGISTERED</text><text fill="#eeeeee" stroke="none" font-family="Arial" font-size="24px" font-style="normal" font-weight="normal" text-decoration="none" x="200" y="60">UNREGISTERED</text><text fill="#eeeeee" stroke="none" font-family="Arial" font-size="24px" font-style="normal" font-weight="normal" text-decoration="none" x="200" y="90">UNREGISTERED</text><text fill="#eeeeee" stroke="none" font-family="Arial" font-size="24px" font-style="normal" font-weight="normal" text-decoration="none" x="200" y="120">UNREGISTERED</text><text fill="#eeeeee" stroke="none" font-family="Arial" font-size="24px" font-style="normal" font-weight="normal" text-decoration="none" x="200" y="150">UNREGISTERED</text><text fill="#eeeeee" stroke="none" font-family="Arial" font-size="24px" font-style="normal" font-weight="normal" text-decoration="none" x="200" y="180">UNREGISTERED</text><text fill="#eeeeee" stroke="none" font-family="Arial" font-size="24px" font-style="normal" font-weight="normal" text-decoration="none" x="200" y="210">UNREGISTERED</text><text fill="#eeeeee" stroke="none" font-family="Arial" font-size="24px" font-style="normal" font-weight="normal" text-decoration="none" x="200" y="240">UNREGISTERED</text><text fill="#eeeeee" stroke="none" font-family="Arial" font-size="24px" font-style="normal" font-weight="normal" text-decoration="none" x="200" y="270">UNREGISTERED</text><text fill="#eeeeee" stroke="none" font-family="Arial" font-size="24px" font-style="normal" font-weight="normal" text-decoration="none" x="200" y="300">UNREGISTERED</text><text fill="#eeeeee" stroke="none" font-family="Arial" font-size="24px" font-style="normal" font-weight="normal" text-decoration="none" x="200" y="330">UNREGISTERED</text><text fill="#eeeeee" stroke="none" font-family="Arial" font-size="24px" font-style="normal" font-weight="normal" text-decoration="none" x="200" y="360">UNREGISTERED</text><text fill="#eeeeee" stroke="none" font-family="Arial" font-size="24px" font-style="normal" font-weight="normal" text-decoration="none" x="200" y="390">UNREGISTERED</text><text fill="#eeeeee" stroke="none" font-family="Arial" font-size="24px" font-style="normal" font-weight="normal" text-decoration="none" x="200" y="420">UNREGISTERED</text><text fill="#eeeeee" stroke="none" font-family="Arial" font-size="24px" font-style="normal" font-weight="normal" text-decoration="none" x="200" y="450">UNREGISTERED</text><text fill="#eeeeee" stroke="none" font-family="Arial" font-size="24px" font-style="normal" font-weight="normal" text-decoration="none" x="200" y="480">UNREGISTERED</text><text fill="#eeeeee" stroke="none" font-family="Arial" font-size="24px" font-style="normal" font-weight="normal" text-decoration="none" x="400" y="0">UNREGISTERED</text><text fill="#eeeeee" stroke="none" font-family="Arial" font-size="24px" font-style="normal" font-weight="normal" text-decoration="none" x="400" y="30">UNREGISTERED</text><text fill="#eeeeee" stroke="none" font-family="Arial" font-size="24px" font-style="normal" font-weight="normal" text-decoration="none" x="400" y="60">UNREGISTERED</text><text fill="#eeeeee" stroke="none" font-family="Arial" font-size="24px" font-style="normal" font-weight="normal" text-decoration="none" x="400" y="90">UNREGISTERED</text><text fill="#eeeeee" stroke="none" font-family="Arial" font-size="24px" font-style="normal" font-weight="normal" text-decoration="none" x="400" y="120">UNREGISTERED</text><text fill="#eeeeee" stroke="none" font-family="Arial" font-size="24px" font-style="normal" font-weight="normal" text-decoration="none" x="400" y="150">UNREGISTERED</text><text fill="#eeeeee" stroke="none" font-family="Arial" font-size="24px" font-style="normal" font-weight="normal" text-decoration="none" x="400" y="180">UNREGISTERED</text><text fill="#eeeeee" stroke="none" font-family="Arial" font-size="24px" font-style="normal" font-weight="normal" text-decoration="none" x="400" y="210">UNREGISTERED</text><text fill="#eeeeee" stroke="none" font-family="Arial" font-size="24px" font-style="normal" font-weight="normal" text-decoration="none" x="400" y="240">UNREGISTERED</text><text fill="#eeeeee" stroke="none" font-family="Arial" font-size="24px" font-style="normal" font-weight="normal" text-decoration="none" x="400" y="270">UNREGISTERED</text><text fill="#eeeeee" stroke="none" font-family="Arial" font-size="24px" font-style="normal" font-weight="normal" text-decoration="none" x="400" y="300">UNREGISTERED</text><text fill="#eeeeee" stroke="none" font-family="Arial" font-size="24px" font-style="normal" font-weight="normal" text-decoration="none" x="400" y="330">UNREGISTERED</text><text fill="#eeeeee" stroke="none" font-family="Arial" font-size="24px" font-style="normal" font-weight="normal" text-decoration="none" x="400" y="360">UNREGISTERED</text><text fill="#eeeeee" stroke="none" font-family="Arial" font-size="24px" font-style="normal" font-weight="normal" text-decoration="none" x="400" y="390">UNREGISTERED</text><text fill="#eeeeee" stroke="none" font-family="Arial" font-size="24px" font-style="normal" font-weight="normal" text-decoration="none" x="400" y="420">UNREGISTERED</text><text fill="#eeeeee" stroke="none" font-family="Arial" font-size="24px" font-style="normal" font-weight="normal" text-decoration="none" x="400" y="450">UNREGISTERED</text><text fill="#eeeeee" stroke="none" font-family="Arial" font-size="24px" font-style="normal" font-weight="normal" text-decoration="none" x="400" y="480">UNREGISTERED</text><g transform="translate(-418,-150) scale(1,1)"><rect fill="#C0C0C0" stroke="none" x="519" y="167" width="400" height="472" opacity="0.2"/></g><g transform="translate(-418,-150) scale(1,1)"><rect fill="#ffffff" stroke="none" x="512" y="160" width="400" height="472"/></g><g transform="translate(-418,-150) scale(1,1)"><path fill="none" stroke="#000000" d="M 512 160 L 912 160 L 912 632 L 512 632 L 512 160 Z Z" stroke-miterlimit="10"/></g><g transform="translate(-418,-150) scale(1,1)"><g><path fill="none" stroke="none"/><text fill="#000000" stroke="none" font-family="Arial" font-size="13px" font-style="normal" font-weight="bold" text-decoration="none" x="690.6845703125" y="179.5">Monefy</text></g></g><g transform="translate(-418,-150) scale(1,1)"><path fill="#ffffff" stroke="none" d="M 444.04118625710225 239.18 C 444.04118625710225 234.386167936 447.92702858204774 230.5 452.720458984375 230.5 C 457.51388938670226 230.5 461.39973171164775 234.386167936 461.39973171164775 239.18 C 461.39973171164775 243.97383206400002 457.51388938670226 247.86 452.720458984375 247.86 C 447.92702858204774 247.86 444.04118625710225 243.97383206400002 444.04118625710225 239.18 Z"/></g><g transform="translate(-418,-150) scale(1,1)"><path fill="none" stroke="#000000" d="M 444.04118625710225 239.18 C 444.04118625710225 234.386167936 447.92702858204774 230.5 452.720458984375 230.5 C 457.51388938670226 230.5 461.39973171164775 234.386167936 461.39973171164775 239.18 C 461.39973171164775 243.97383206400002 457.51388938670226 247.86 452.720458984375 247.86 C 447.92702858204774 247.86 444.04118625710225 243.97383206400002 444.04118625710225 239.18 Z" stroke-miterlimit="10"/></g><g transform="translate(-418,-150) scale(1,1)"><path fill="none" stroke="#000000" d="M 452.720458984375 247.86 L 452.720458984375 265.14" stroke-miterlimit="10"/></g><g transform="translate(-418,-150) scale(1,1)"><path fill="none" stroke="#000000" d="M 443.53064080255683 254.34 L 461.91027716619317 254.34" stroke-miterlimit="10"/></g><g transform="translate(-418,-150) scale(1,1)"><path fill="none" stroke="#000000" d="M 452.720458984375 265.14 L 439.95682262073865 282.5" stroke-miterlimit="10"/></g><g transform="translate(-418,-150) scale(1,1)"><path fill="none" stroke="#000000" d="M 452.720458984375 265.14 L 465.48409534801135 282.5" stroke-miterlimit="10"/></g><g transform="translate(-418,-150) scale(1,1)"><g><path fill="none" stroke="none"/><text fill="#000000" stroke="none" font-family="Arial" font-size="13px" font-style="normal" font-weight="bold" text-decoration="none" x="438.996826171875" y="303">User</text></g></g><g transform="translate(-418,-150) scale(1,1)"><path fill="#ffffff" stroke="none" d="M 444.04118625710225 374.18 C 444.04118625710225 369.386167936 447.92702858204774 365.5 452.720458984375 365.5 C 457.51388938670226 365.5 461.39973171164775 369.386167936 461.39973171164775 374.18 C 461.39973171164775 378.973832064 457.51388938670226 382.86 452.720458984375 382.86 C 447.92702858204774 382.86 444.04118625710225 378.973832064 444.04118625710225 374.18 Z"/></g><g transform="translate(-418,-150) scale(1,1)"><path fill="none" stroke="#000000" d="M 444.04118625710225 374.18 C 444.04118625710225 369.386167936 447.92702858204774 365.5 452.720458984375 365.5 C 457.51388938670226 365.5 461.39973171164775 369.386167936 461.39973171164775 374.18 C 461.39973171164775 378.973832064 457.51388938670226 382.86 452.720458984375 382.86 C 447.92702858204774 382.86 444.04118625710225 378.973832064 444.04118625710225 374.18 Z" stroke-miterlimit="10"/></g><g transform="translate(-418,-150) scale(1,1)"><path fill="none" stroke="#000000" d="M 452.720458984375 382.86 L 452.720458984375 400.14" stroke-miterlimit="10"/></g><g transform="translate(-418,-150) scale(1,1)"><path fill="none" stroke="#000000" d="M 443.53064080255683 389.34 L 461.91027716619317 389.34" stroke-miterlimit="10"/></g><g transform="translate(-418,-150) scale(1,1)"><path fill="none" stroke="#000000" d="M 452.720458984375 400.14 L 439.95682262073865 417.5" stroke-miterlimit="10"/></g><g transform="translate(-418,-150) scale(1,1)"><path fill="none" stroke="#000000" d="M 452.720458984375 400.14 L 465.48409534801135 417.5" stroke-miterlimit="10"/></g><g transform="translate(-418,-150) scale(1,1)"><g><path fill="none" stroke="none"/><text fill="#000000" stroke="none" font-family="Arial" font-size="13px" font-style="normal" font-weight="bold" text-decoration="none" x="434.29638671875" y="438">Admin</text></g></g><g transform="translate(-418,-150) scale(1,1)"><path fill="#C0C0C0" stroke="none" d="M 637.94091796875 291 C 637.94091796875 281.6111584 672.63884596875 274 715.44091796875 274 C 758.24298996875 274 792.94091796875 281.6111584 792.94091796875 291 C 792.94091796875 300.3888416 758.24298996875 308 715.44091796875 308 C 672.63884596875 308 637.94091796875 300.3888416 637.94091796875 291 Z" opacity="0.2"/></g><g transform="translate(-418,-150) scale(1,1)"><path fill="#ffffff" stroke="none" d="M 630.94091796875 284 C 630.94091796875 274.6111584 665.63884596875 267 708.44091796875 267 C 751.24298996875 267 785.94091796875 274.6111584 785.94091796875 284 C 785.94091796875 293.3888416 751.24298996875 301 708.44091796875 301 C 665.63884596875 301 630.94091796875 293.3888416 630.94091796875 284 Z"/></g><g transform="translate(-418,-150) scale(1,1)"><path fill="none" stroke="#000000" d="M 630.94091796875 284 C 630.94091796875 274.6111584 665.63884596875 267 708.44091796875 267 C 751.24298996875 267 785.94091796875 274.6111584 785.94091796875 284 C 785.94091796875 293.3888416 751.24298996875 301 708.44091796875 301 C 665.63884596875 301 630.94091796875 293.3888416 630.94091796875 284 Z" stroke-miterlimit="10"/></g><g transform="translate(-418,-150) scale(1,1)"><g><path fill="none" stroke="none"/><text fill="#000000" stroke="none" font-family="Arial" font-size="13px" font-style="normal" font-weight="bold" text-decoration="none" x="661.236572265625" y="291">View Currencies</text></g></g><g transform="translate(-418,-150) scale(1,1)"><path fill="#C0C0C0" stroke="none" d="M 640.94091796875 362.5 C 640.94091796875 353.1111584 674.29570036875 345.5 715.44091796875 345.5 C 756.58613556875 345.5 789.94091796875 353.1111584 789.94091796875 362.5 C 789.94091796875 371.8888416 756.58613556875 379.5 715.44091796875 379.5 C 674.29570036875 379.5 640.94091796875 371.8888416 640.94091796875 362.5 Z" opacity="0.2"/></g><g transform="translate(-418,-150) scale(1,1)"><path fill="#ffffff" stroke="none" d="M 633.94091796875 355.5 C 633.94091796875 346.1111584 667.29570036875 338.5 708.44091796875 338.5 C 749.58613556875 338.5 782.94091796875 346.1111584 782.94091796875 355.5 C 782.94091796875 364.8888416 749.58613556875 372.5 708.44091796875 372.5 C 667.29570036875 372.5 633.94091796875 364.8888416 633.94091796875 355.5 Z"/></g><g transform="translate(-418,-150) scale(1,1)"><path fill="none" stroke="#000000" d="M 633.94091796875 355.5 C 633.94091796875 346.1111584 667.29570036875 338.5 708.44091796875 338.5 C 749.58613556875 338.5 782.94091796875 346.1111584 782.94091796875 355.5 C 782.94091796875 364.8888416 749.58613556875 372.5 708.44091796875 372.5 C 667.29570036875 372.5 633.94091796875 364.8888416 633.94091796875 355.5 Z" stroke-miterlimit="10"/></g><g transform="translate(-418,-150) scale(1,1)"><g><path fill="none" stroke="none"/><text fill="#000000" stroke="none" font-family="Arial" font-size="13px" font-style="normal" font-weight="bold" text-decoration="none" x="664.010498046875" y="362.5">Insert Currency</text></g></g><g transform="translate(-418,-150) scale(1,1)"><path fill="#C0C0C0" stroke="none" d="M 648.94091796875 427.5 C 648.94091796875 418.1111584 678.7139787687499 410.5 715.44091796875 410.5 C 752.1678571687501 410.5 781.94091796875 418.1111584 781.94091796875 427.5 C 781.94091796875 436.8888416 752.1678571687501 444.5 715.44091796875 444.5 C 678.7139787687499 444.5 648.94091796875 436.8888416 648.94091796875 427.5 Z" opacity="0.2"/></g><g transform="translate(-418,-150) scale(1,1)"><path fill="#ffffff" stroke="none" d="M 641.94091796875 420.5 C 641.94091796875 411.1111584 671.7139787687499 403.5 708.44091796875 403.5 C 745.1678571687501 403.5 774.94091796875 411.1111584 774.94091796875 420.5 C 774.94091796875 429.8888416 745.1678571687501 437.5 708.44091796875 437.5 C 671.7139787687499 437.5 641.94091796875 429.8888416 641.94091796875 420.5 Z"/></g><g transform="translate(-418,-150) scale(1,1)"><path fill="none" stroke="#000000" d="M 641.94091796875 420.5 C 641.94091796875 411.1111584 671.7139787687499 403.5 708.44091796875 403.5 C 745.1678571687501 403.5 774.94091796875 411.1111584 774.94091796875 420.5 C 774.94091796875 429.8888416 745.1678571687501 437.5 708.44091796875 437.5 C 671.7139787687499 437.5 641.94091796875 429.8888416 641.94091796875 420.5 Z" stroke-miterlimit="10"/></g><g transform="translate(-418,-150) scale(1,1)"><g><path fill="none" stroke="none"/><text fill="#000000" stroke="none" font-family="Arial" font-size="13px" font-style="normal" font-weight="bold" text-decoration="none" x="669.06640625" y="427.5">Edit Currency</text></g></g><g transform="translate(-418,-150) scale(1,1)"><path fill="#C0C0C0" stroke="none" d="M 638.44091796875 492.5 C 638.44091796875 483.1111584 672.91498836875 475.5 715.44091796875 475.5 C 757.96684756875 475.5 792.44091796875 483.1111584 792.44091796875 492.5 C 792.44091796875 501.8888416 757.96684756875 509.5 715.44091796875 509.5 C 672.91498836875 509.5 638.44091796875 501.8888416 638.44091796875 492.5 Z" opacity="0.2"/></g><g transform="translate(-418,-150) scale(1,1)"><path fill="#ffffff" stroke="none" d="M 631.44091796875 485.5 C 631.44091796875 476.1111584 665.91498836875 468.5 708.44091796875 468.5 C 750.96684756875 468.5 785.44091796875 476.1111584 785.44091796875 485.5 C 785.44091796875 494.8888416 750.96684756875 502.5 708.44091796875 502.5 C 665.91498836875 502.5 631.44091796875 494.8888416 631.44091796875 485.5 Z"/></g><g transform="translate(-418,-150) scale(1,1)"><path fill="none" stroke="#000000" d="M 631.44091796875 485.5 C 631.44091796875 476.1111584 665.91498836875 468.5 708.44091796875 468.5 C 750.96684756875 468.5 785.44091796875 476.1111584 785.44091796875 485.5 C 785.44091796875 494.8888416 750.96684756875 502.5 708.44091796875 502.5 C 665.91498836875 502.5 631.44091796875 494.8888416 631.44091796875 485.5 Z" stroke-miterlimit="10"/></g><g transform="translate(-418,-150) scale(1,1)"><g><path fill="none" stroke="none"/><text fill="#000000" stroke="none" font-family="Arial" font-size="13px" font-style="normal" font-weight="bold" text-decoration="none" x="661.477783203125" y="492.5">Delete Currency</text></g></g><g transform="translate(-418,-150) scale(1,1)"><path fill="none" stroke="#000000" d="M 473 270 Q 473 270 483 270 Q 493 270 630 279" stroke-miterlimit="10"/></g><g transform="translate(-418,-150) scale(1,1)"><path fill="none" stroke="#000000" d="M 473 364 Q 493 325 630 299" stroke-miterlimit="10"/></g><g transform="translate(-418,-150) scale(1,1)"><path fill="none" stroke="#000000" d="M 452 404 Q 478 384 485.5 378 Q 493 372 633 361" stroke-miterlimit="10"/></g><g transform="translate(-418,-150) scale(1,1)"><path fill="none" stroke="#000000" d="M 452 404 Q 478 425 485.5 431 Q 493 437 641 425" stroke-miterlimit="10"/></g><g transform="translate(-418,-150) scale(1,1)"><path fill="none" stroke="#000000" d="M 470 445 Q 470 445 507 466.5 Q 544 488 630 486" stroke-miterlimit="10"/></g><g transform="translate(-418,-150) scale(1,1)"><path fill="#C0C0C0" stroke="none" d="M 646 552 C 646 542.6111584 677.340064 535 716 535 C 754.659936 535 786 542.6111584 786 552 C 786 561.3888416 754.659936 569 716 569 C 677.340064 569 646 561.3888416 646 552 Z" opacity="0.2"/></g><g transform="translate(-418,-150) scale(1,1)"><path fill="#ffffff" stroke="none" d="M 639 545 C 639 535.6111584 670.340064 528 709 528 C 747.659936 528 779 535.6111584 779 545 C 779 554.3888416 747.659936 562 709 562 C 670.340064 562 639 554.3888416 639 545 Z"/></g><g transform="translate(-418,-150) scale(1,1)"><path fill="none" stroke="#000000" d="M 639 545 C 639 535.6111584 670.340064 528 709 528 C 747.659936 528 779 535.6111584 779 545 C 779 554.3888416 747.659936 562 709 562 C 670.340064 562 639 554.3888416 639 545 Z" stroke-miterlimit="10"/></g><g transform="translate(-418,-150) scale(1,1)"><g><path fill="none" stroke="none"/><text fill="#000000" stroke="none" font-family="Arial" font-size="13px" font-style="normal" font-weight="bold" text-decoration="none" x="666.854736328125" y="552">View Currency</text></g></g><g transform="translate(-418,-150) scale(1,1)"><path fill="none" stroke="#000000" d="M 476 445 L 520 520 L 638 536" stroke-miterlimit="10"/></g></g></svg>