<svg version="1.1" xmlns="http://www.w3.org/2000/svg" xmlns:xlink="http://www.w3.org/1999/xlink" width="392.9072265625" height="492"><defs/><g><text fill="#eeeeee" stroke="none" font-family="Arial" font-size="24px" font-style="normal" font-weight="normal" text-decoration="none" x="0" y="0">UNREGISTERED</text><text fill="#eeeeee" stroke="none" font-family="Arial" font-size="24px" font-style="normal" font-weight="normal" text-decoration="none" x="0" y="30">UNREGISTERED</text><text fill="#eeeeee" stroke="none" font-family="Arial" font-size="24px" font-style="normal" font-weight="normal" text-decoration="none" x="0" y="60">UNREGISTERED</text><text fill="#eeeeee" stroke="none" font-family="Arial" font-size="24px" font-style="normal" font-weight="normal" text-decoration="none" x="0" y="90">UNREGISTERED</text><text fill="#eeeeee" stroke="none" font-family="Arial" font-size="24px" font-style="normal" font-weight="normal" text-decoration="none" x="0" y="120">UNREGISTERED</text><text fill="#eeeeee" stroke="none" font-family="Arial" font-size="24px" font-style="normal" font-weight="normal" text-decoration="none" x="0" y="150">UNREGISTERED</text><text fill="#eeeeee" stroke="none" font-family="Arial" font-size="24px" font-style="normal" font-weight="normal" text-decoration="none" x="0" y="180">UNREGISTERED</text><text fill="#eeeeee" stroke="none" font-family="Arial" font-size="24px" font-style="normal" font-weight="normal" text-decoration="none" x="0" y="210">UNREGISTERED</text><text fill="#eeeeee" stroke="none" font-family="Arial" font-size="24px" font-style="normal" font-weight="normal" text-decoration="none" x="0" y="240">UNREGISTERED</text><text fill="#eeeeee" stroke="none" font-family="Arial" font-size="24px" font-style="normal" font-weight="normal" text-decoration="none" x="0" y="270">UNREGISTERED</text><text fill="#eeeeee" stroke="none" font-family="Arial" font-size="24px" font-style="normal" font-weight="normal" text-decoration="none" x="0" y="300">UNREGISTERED</text><text fill="#eeeeee" stroke="none" font-family="Arial" font-size="24px" font-style="normal" font-weight="normal" text-decoration="none" x="0" y="330">UNREGISTERED</text><text fill="#eeeeee" stroke="none" font-family="Arial" font-size="24px" font-style="normal" font-weight="normal" text-decoration="none" x="0" y="360">UNREGISTERED</text><text fill="#eeeeee" stroke="none" font-family="Arial" font-size="24px" font-style="normal" font-weight="normal" text-decoration="none" x="0" y="390">UNREGISTERED</text><text fill="#eeeeee" stroke="none" font-family="Arial" font-size="24px" font-style="normal" font-weight="normal" text-decoration="none" x="0" y="420">UNREGISTERED</text><text fill="#eeeeee" stroke="none" font-family="Arial" font-size="24px" font-style="normal" font-weight="normal" text-decoration="none" x="0" y="450">UNREGISTERED</text><text fill="#eeeeee" stroke="none" font-family="Arial" font-size="24px" font-style="normal" font-weight="normal" text-decoration="none" x="0" y="480">UNREGISTERED</text><text fill="#eeeeee" stroke="none" font-family="Arial" font-size="24px" font-style="normal" font-weight="normal" text-decoration="none" x="200" y="0">UNREGISTERED</text><text fill="#eeeeee" stroke="none" font-family="Arial" font-size="24px" font-style="normal" font-weight="normal" text-decoration="none" x="200" y="30">UNREGISTERED</text><text fill="#eeeeee" stroke="none" font-family="Arial" font-size="24px" font-style="normal" font-weight="normal" text-decoration="none" x="200" y="60">UNREGISTERED</text><text fill="#eeeeee" stroke="none" font-family="Arial" font-size="24px" font-style="normal" font-weight="normal" text-decoration="none" x="200" y="90">UNREGISTERED</text><text fill="#eeeeee" stroke="none" font-family="Arial" font-size="24px" font-style="normal" font-weight="normal" text-decoration="none" x="200" y="120">UNREGISTERED</text><text fill="#eeeeee" stroke="none" font-family="Arial" font-size="24px" font-style="normal" font-weight="normal" text-decoration="none" x="200" y="150">UNREGISTERED</text><text fill="#eeeeee" stroke="none" font-family="Arial" font-size="24px" font-style="normal" font-weight="normal" text-decoration="none" x="200" y="180">UNREGISTERED</text><text fill="#eeeeee" stroke="none" font-family="Arial" font-size="24px" font-style="normal" font-weight="normal" text-decoration="none" x="200" y="210">UNREGISTERED</text><text fill="#eeeeee" stroke="none" font-family="Arial" font-size="24px" font-style="normal" font-weight="normal" text-decoration="none" x="200" y="240">UNREGISTERED</text><text fill="#eeeeee" stroke="none" font-family="Arial" font-size="24px" font-style="normal" font-weight="normal" text-decoration="none" x="200" y="270">UNREGISTERED</text><text fill="#eeeeee" stroke="none" font-family="Arial" font-size="24px" font-style="normal" font-weight="normal" text-decoration="none" x="200" y="300">UNREGISTERED</text><text fill="#eeeeee" stroke="none" font-family="Arial" font-size="24px" font-style="normal" font-weight="normal" text-decoration="none" x="200" y="330">UNREGISTERED</text><text fill="#eeeeee" stroke="none" font-family="Arial" font-size="24px" font-style="normal" font-weight="normal" text-decoration="none" x="200" y="360">UNREGISTERED</text><text fill="#eeeeee" stroke="none" font-family="Arial" font-size="24px" font-style="normal" font-weight="normal" text-decoration="none" x="200" y="390">UNREGISTERED</text><text fill="#eeeeee" stroke="none" font-family="Arial" font-size="24px" font-style="normal" font-weight="normal" text-decoration="none" x="200" y="420">UNREGISTERED</text><text fill="#eeeeee" stroke="none" font-family="Arial" font-size="24px" font-style="normal" font-weight="normal" text-decoration="none" x="200" y="450">UNREGISTERED</text><text fill="#eeeeee" stroke="none" font-family="Arial" font-size="24px" font-style="normal" font-weight="normal" text-decoration="none" x="200" y="480">UNREGISTERED</text><g transform="translate(-410,-90) scale(1,1)"><rect fill="#C0C0C0" stroke="none" x="495.9072265625" y="107" width="304" height="472" opacity="0.2"/></g><g transform="translate(-410,-90) scale(1,1)"><rect fill="#ffffff" stroke="none" x="488.9072265625" y="100" width="304" height="472"/></g><g transform="translate(-410,-90) scale(1,1)"><path fill="none" stroke="#000000" d="M 488.9072265625 100 L 792.9072265625 100 L 792.9072265625 572 L 488.9072265625 572 L 488.9072265625 100 Z Z" stroke-miterlimit="10"/></g><g transform="translate(-410,-90) scale(1,1)"><g><path fill="none" stroke="none"/><text fill="#000000" stroke="none" font-family="Arial" font-size="13px" font-style="normal" font-weight="bold" text-decoration="none" x="619.591796875" y="119.5">Monefy</text></g></g><g transform="translate(-410,-90) scale(1,1)"><path fill="#ffffff" stroke="none" d="M 430.27434055397725 312.18 C 430.27434055397725 307.386167936 434.16018287892274 303.5 438.95361328125 303.5 C 443.74704368357726 303.5 447.63288600852275 307.386167936 447.63288600852275 312.18 C 447.63288600852275 316.973832064 443.74704368357726 320.86 438.95361328125 320.86 C 434.16018287892274 320.86 430.27434055397725 316.973832064 430.27434055397725 312.18 Z"/></g><g transform="translate(-410,-90) scale(1,1)"><path fill="none" stroke="#000000" d="M 430.27434055397725 312.18 C 430.27434055397725 307.386167936 434.16018287892274 303.5 438.95361328125 303.5 C 443.74704368357726 303.5 447.63288600852275 307.386167936 447.63288600852275 312.18 C 447.63288600852275 316.973832064 443.74704368357726 320.86 438.95361328125 320.86 C 434.16018287892274 320.86 430.27434055397725 316.973832064 430.27434055397725 312.18 Z" stroke-miterlimit="10"/></g><g transform="translate(-410,-90) scale(1,1)"><path fill="none" stroke="#000000" d="M 438.95361328125 320.86 L 438.95361328125 338.14" stroke-miterlimit="10"/></g><g transform="translate(-410,-90) scale(1,1)"><path fill="none" stroke="#000000" d="M 429.76379509943183 327.34 L 448.14343146306817 327.34" stroke-miterlimit="10"/></g><g transform="translate(-410,-90) scale(1,1)"><path fill="none" stroke="#000000" d="M 438.95361328125 338.14 L 426.18997691761365 355.5" stroke-miterlimit="10"/></g><g transform="translate(-410,-90) scale(1,1)"><path fill="none" stroke="#000000" d="M 438.95361328125 338.14 L 451.71724964488635 355.5" stroke-miterlimit="10"/></g><g transform="translate(-410,-90) scale(1,1)"><g><path fill="none" stroke="none"/><text fill="#000000" stroke="none" font-family="Arial" font-size="13px" font-style="normal" font-weight="bold" text-decoration="none" x="425.22998046875" y="376">User</text></g></g><g transform="translate(-410,-90) scale(1,1)"><path fill="#C0C0C0" stroke="none" d="M 566.4072265625 219 C 566.4072265625 209.6111584 602.8960153625 202 647.9072265625 202 C 692.9184377625 202 729.4072265625 209.6111584 729.4072265625 219 C 729.4072265625 228.3888416 692.9184377625 236 647.9072265625 236 C 602.8960153625 236 566.4072265625 228.3888416 566.4072265625 219 Z" opacity="0.2"/></g><g transform="translate(-410,-90) scale(1,1)"><path fill="#ffffff" stroke="none" d="M 559.4072265625 212 C 559.4072265625 202.6111584 595.8960153625 195 640.9072265625 195 C 685.9184377625 195 722.4072265625 202.6111584 722.4072265625 212 C 722.4072265625 221.3888416 685.9184377625 229 640.9072265625 229 C 595.8960153625 229 559.4072265625 221.3888416 559.4072265625 212 Z"/></g><g transform="translate(-410,-90) scale(1,1)"><path fill="none" stroke="#000000" d="M 559.4072265625 212 C 559.4072265625 202.6111584 595.8960153625 195 640.9072265625 195 C 685.9184377625 195 722.4072265625 202.6111584 722.4072265625 212 C 722.4072265625 221.3888416 685.9184377625 229 640.9072265625 229 C 595.8960153625 229 559.4072265625 221.3888416 559.4072265625 212 Z" stroke-miterlimit="10"/></g><g transform="translate(-410,-90) scale(1,1)"><g><path fill="none" stroke="none"/><text fill="#000000" stroke="none" font-family="Arial" font-size="13px" font-style="normal" font-weight="bold" text-decoration="none" x="591.411376953125" y="219">View Transaction</text></g></g><g transform="translate(-410,-90) scale(1,1)"><path fill="#C0C0C0" stroke="none" d="M 561.4072265625 284 C 561.4072265625 274.6111584 600.1345913625 267 647.9072265625 267 C 695.6798617625 267 734.4072265625 274.6111584 734.4072265625 284 C 734.4072265625 293.3888416 695.6798617625 301 647.9072265625 301 C 600.1345913625 301 561.4072265625 293.3888416 561.4072265625 284 Z" opacity="0.2"/></g><g transform="translate(-410,-90) scale(1,1)"><path fill="#ffffff" stroke="none" d="M 554.4072265625 277 C 554.4072265625 267.6111584 593.1345913625 260 640.9072265625 260 C 688.6798617625 260 727.4072265625 267.6111584 727.4072265625 277 C 727.4072265625 286.3888416 688.6798617625 294 640.9072265625 294 C 593.1345913625 294 554.4072265625 286.3888416 554.4072265625 277 Z"/></g><g transform="translate(-410,-90) scale(1,1)"><path fill="none" stroke="#000000" d="M 554.4072265625 277 C 554.4072265625 267.6111584 593.1345913625 260 640.9072265625 260 C 688.6798617625 260 727.4072265625 267.6111584 727.4072265625 277 C 727.4072265625 286.3888416 688.6798617625 294 640.9072265625 294 C 593.1345913625 294 554.4072265625 286.3888416 554.4072265625 277 Z" stroke-miterlimit="10"/></g><g transform="translate(-410,-90) scale(1,1)"><g><path fill="none" stroke="none"/><text fill="#000000" stroke="none" font-family="Arial" font-size="13px" font-style="normal" font-weight="bold" text-decoration="none" x="588.161376953125" y="284">View Transactions</text></g></g><g transform="translate(-410,-90) scale(1,1)"><path fill="#C0C0C0" stroke="none" d="M 569.9072265625 349 C 569.9072265625 339.6111584 604.8290121625 332 647.9072265625 332 C 690.9854409625 332 725.9072265625 339.6111584 725.9072265625 349 C 725.9072265625 358.3888416 690.9854409625 366 647.9072265625 366 C 604.8290121625 366 569.9072265625 358.3888416 569.9072265625 349 Z" opacity="0.2"/></g><g transform="translate(-410,-90) scale(1,1)"><path fill="#ffffff" stroke="none" d="M 562.9072265625 342 C 562.9072265625 332.6111584 597.8290121625 325 640.9072265625 325 C 683.9854409625 325 718.9072265625 332.6111584 718.9072265625 342 C 718.9072265625 351.3888416 683.9854409625 359 640.9072265625 359 C 597.8290121625 359 562.9072265625 351.3888416 562.9072265625 342 Z"/></g><g transform="translate(-410,-90) scale(1,1)"><path fill="none" stroke="#000000" d="M 562.9072265625 342 C 562.9072265625 332.6111584 597.8290121625 325 640.9072265625 325 C 683.9854409625 325 718.9072265625 332.6111584 718.9072265625 342 C 718.9072265625 351.3888416 683.9854409625 359 640.9072265625 359 C 597.8290121625 359 562.9072265625 351.3888416 562.9072265625 342 Z" stroke-miterlimit="10"/></g><g transform="translate(-410,-90) scale(1,1)"><g><path fill="none" stroke="none"/><text fill="#000000" stroke="none" font-family="Arial" font-size="13px" font-style="normal" font-weight="bold" text-decoration="none" x="594.18212890625" y="349">Edit Transaction</text></g></g><g transform="translate(-410,-90) scale(1,1)"><path fill="#C0C0C0" stroke="none" d="M 562.4072265625 414 C 562.4072265625 404.6111584 600.6868761625 397 647.9072265625 397 C 695.1275769625 397 733.4072265625 404.6111584 733.4072265625 414 C 733.4072265625 423.3888416 695.1275769625 431 647.9072265625 431 C 600.6868761625 431 562.4072265625 423.3888416 562.4072265625 414 Z" opacity="0.2"/></g><g transform="translate(-410,-90) scale(1,1)"><path fill="#ffffff" stroke="none" d="M 555.4072265625 407 C 555.4072265625 397.6111584 593.6868761625 390 640.9072265625 390 C 688.1275769625 390 726.4072265625 397.6111584 726.4072265625 407 C 726.4072265625 416.3888416 688.1275769625 424 640.9072265625 424 C 593.6868761625 424 555.4072265625 416.3888416 555.4072265625 407 Z"/></g><g transform="translate(-410,-90) scale(1,1)"><path fill="none" stroke="#000000" d="M 555.4072265625 407 C 555.4072265625 397.6111584 593.6868761625 390 640.9072265625 390 C 688.1275769625 390 726.4072265625 397.6111584 726.4072265625 407 C 726.4072265625 416.3888416 688.1275769625 424 640.9072265625 424 C 593.6868761625 424 555.4072265625 416.3888416 555.4072265625 407 Z" stroke-miterlimit="10"/></g><g transform="translate(-410,-90) scale(1,1)"><g><path fill="none" stroke="none"/><text fill="#000000" stroke="none" font-family="Arial" font-size="13px" font-style="normal" font-weight="bold" text-decoration="none" x="589.126220703125" y="414">Insert Transaction</text></g></g><g transform="translate(-410,-90) scale(1,1)"><path fill="#C0C0C0" stroke="none" d="M 559.9072265625 479 C 559.9072265625 469.6111584 599.3061641625 462 647.9072265625 462 C 696.5082889625 462 735.9072265625 469.6111584 735.9072265625 479 C 735.9072265625 488.3888416 696.5082889625 496 647.9072265625 496 C 599.3061641625 496 559.9072265625 488.3888416 559.9072265625 479 Z" opacity="0.2"/></g><g transform="translate(-410,-90) scale(1,1)"><path fill="#ffffff" stroke="none" d="M 552.9072265625 472 C 552.9072265625 462.6111584 592.3061641625 455 640.9072265625 455 C 689.5082889625 455 728.9072265625 462.6111584 728.9072265625 472 C 728.9072265625 481.3888416 689.5082889625 489 640.9072265625 489 C 592.3061641625 489 552.9072265625 481.3888416 552.9072265625 472 Z"/></g><g transform="translate(-410,-90) scale(1,1)"><path fill="none" stroke="#000000" d="M 552.9072265625 472 C 552.9072265625 462.6111584 592.3061641625 455 640.9072265625 455 C 689.5082889625 455 728.9072265625 462.6111584 728.9072265625 472 C 728.9072265625 481.3888416 689.5082889625 489 640.9072265625 489 C 592.3061641625 489 552.9072265625 481.3888416 552.9072265625 472 Z" stroke-miterlimit="10"/></g><g transform="translate(-410,-90) scale(1,1)"><g><path fill="none" stroke="none"/><text fill="#000000" stroke="none" font-family="Arial" font-size="13px" font-style="normal" font-weight="bold" text-decoration="none" x="586.593505859375" y="479">Delete Transaction</text></g></g><g transform="translate(-410,-90) scale(1,1)"><path fill="none" stroke="#000000" d="M 449 302 Q 474 213 558 212" stroke-miterlimit="10"/></g><g transform="translate(-410,-90) scale(1,1)"><path fill="none" stroke="#000000" d="M 459 306 Q 459 306 466.5 292 Q 474 278 553 278" stroke-miterlimit="10"/></g><g transform="translate(-410,-90) scale(1,1)"><path fill="none" stroke="#000000" d="M 459 343 Q 459 343 466.5 343 Q 474 343 562 342" stroke-miterlimit="10"/></g><g transform="translate(-410,-90) scale(1,1)"><path fill="none" stroke="#000000" d="M 459 379 Q 459 379 466.5 393.5 Q 474 408 554 408" stroke-miterlimit="10"/></g><g transform="translate(-410,-90) scale(1,1)"><path fill="none" stroke="#000000" d="M 450 383 Q 450 383 462 428 Q 474 473 552 473" stroke-miterlimit="10"/></g></g></svg>