<svg version="1.1" xmlns="http://www.w3.org/2000/svg" xmlns:xlink="http://www.w3.org/1999/xlink" width="500.9072265625" height="420"><defs/><g><text fill="#eeeeee" stroke="none" font-family="Arial" font-size="24px" font-style="normal" font-weight="normal" text-decoration="none" x="0" y="0">UNREGISTERED</text><text fill="#eeeeee" stroke="none" font-family="Arial" font-size="24px" font-style="normal" font-weight="normal" text-decoration="none" x="0" y="30">UNREGISTERED</text><text fill="#eeeeee" stroke="none" font-family="Arial" font-size="24px" font-style="normal" font-weight="normal" text-decoration="none" x="0" y="60">UNREGISTERED</text><text fill="#eeeeee" stroke="none" font-family="Arial" font-size="24px" font-style="normal" font-weight="normal" text-decoration="none" x="0" y="90">UNREGISTERED</text><text fill="#eeeeee" stroke="none" font-family="Arial" font-size="24px" font-style="normal" font-weight="normal" text-decoration="none" x="0" y="120">UNREGISTERED</text><text fill="#eeeeee" stroke="none" font-family="Arial" font-size="24px" font-style="normal" font-weight="normal" text-decoration="none" x="0" y="150">UNREGISTERED</text><text fill="#eeeeee" stroke="none" font-family="Arial" font-size="24px" font-style="normal" font-weight="normal" text-decoration="none" x="0" y="180">UNREGISTERED</text><text fill="#eeeeee" stroke="none" font-family="Arial" font-size="24px" font-style="normal" font-weight="normal" text-decoration="none" x="0" y="210">UNREGISTERED</text><text fill="#eeeeee" stroke="none" font-family="Arial" font-size="24px" font-style="normal" font-weight="normal" text-decoration="none" x="0" y="240">UNREGISTERED</text><text fill="#eeeeee" stroke="none" font-family="Arial" font-size="24px" font-style="normal" font-weight="normal" text-decoration="none" x="0" y="270">UNREGISTERED</text><text fill="#eeeeee" stroke="none" font-family="Arial" font-size="24px" font-style="normal" font-weight="normal" text-decoration="none" x="0" y="300">UNREGISTERED</text><text fill="#eeeeee" stroke="none" font-family="Arial" font-size="24px" font-style="normal" font-weight="normal" text-decoration="none" x="0" y="330">UNREGISTERED</text><text fill="#eeeeee" stroke="none" font-family="Arial" font-size="24px" font-style="normal" font-weight="normal" text-decoration="none" x="0" y="360">UNREGISTERED</text><text fill="#eeeeee" stroke="none" font-family="Arial" font-size="24px" font-style="normal" font-weight="normal" text-decoration="none" x="0" y="390">UNREGISTERED</text><text fill="#eeeeee" stroke="none" font-family="Arial" font-size="24px" font-style="normal" font-weight="normal" text-decoration="none" x="200" y="0">UNREGISTERED</text><text fill="#eeeeee" stroke="none" font-family="Arial" font-size="24px" font-style="normal" font-weight="normal" text-decoration="none" x="200" y="30">UNREGISTERED</text><text fill="#eeeeee" stroke="none" font-family="Arial" font-size="24px" font-style="normal" font-weight="normal" text-decoration="none" x="200" y="60">UNREGISTERED</text><text fill="#eeeeee" stroke="none" font-family="Arial" font-size="24px" font-style="normal" font-weight="normal" text-decoration="none" x="200" y="90">UNREGISTERED</text><text fill="#eeeeee" stroke="none" font-family="Arial" font-size="24px" font-style="normal" font-weight="normal" text-decoration="none" x="200" y="120">UNREGISTERED</text><text fill="#eeeeee" stroke="none" font-family="Arial" font-size="24px" font-style="normal" font-weight="normal" text-decoration="none" x="200" y="150">UNREGISTERED</text><text fill="#eeeeee" stroke="none" font-family="Arial" font-size="24px" font-style="normal" font-weight="normal" text-decoration="none" x="200" y="180">UNREGISTERED</text><text fill="#eeeeee" stroke="none" font-family="Arial" font-size="24px" font-style="normal" font-weight="normal" text-decoration="none" x="200" y="210">UNREGISTERED</text><text fill="#eeeeee" stroke="none" font-family="Arial" font-size="24px" font-style="normal" font-weight="normal" text-decoration="none" x="200" y="240">UNREGISTERED</text><text fill="#eeeeee" stroke="none" font-family="Arial" font-size="24px" font-style="normal" font-weight="normal" text-decoration="none" x="200" y="270">UNREGISTERED</text><text fill="#eeeeee" stroke="none" font-family="Arial" font-size="24px" font-style="normal" font-weight="normal" text-decoration="none" x="200" y="300">UNREGISTERED</text><text fill="#eeeeee" stroke="none" font-family="Arial" font-size="24px" font-style="normal" font-weight="normal" text-decoration="none" x="200" y="330">UNREGISTERED</text><text fill="#eeeeee" stroke="none" font-family="Arial" font-size="24px" font-style="normal" font-weight="normal" text-decoration="none" x="200" y="360">UNREGISTERED</text><text fill="#eeeeee" stroke="none" font-family="Arial" font-size="24px" font-style="normal" font-weight="normal" text-decoration="none" x="200" y="390">UNREGISTERED</text><text fill="#eeeeee" stroke="none" font-family="Arial" font-size="24px" font-style="normal" font-weight="normal" text-decoration="none" x="400" y="0">UNREGISTERED</text><text fill="#eeeeee" stroke="none" font-family="Arial" font-size="24px" font-style="normal" font-weight="normal" text-decoration="none" x="400" y="30">UNREGISTERED</text><text fill="#eeeeee" stroke="none" font-family="Arial" font-size="24px" font-style="normal" font-weight="normal" text-decoration="none" x="400" y="60">UNREGISTERED</text><text fill="#eeeeee" stroke="none" font-family="Arial" font-size="24px" font-style="normal" font-weight="normal" text-decoration="none" x="400" y="90">UNREGISTERED</text><text fill="#eeeeee" stroke="none" font-family="Arial" font-size="24px" font-style="normal" font-weight="normal" text-decoration="none" x="400" y="120">UNREGISTERED</text><text fill="#eeeeee" stroke="none" font-family="Arial" font-size="24px" font-style="normal" font-weight="normal" text-decoration="none" x="400" y="150">UNREGISTERED</text><text fill="#eeeeee" stroke="none" font-family="Arial" font-size="24px" font-style="normal" font-weight="normal" text-decoration="none" x="400" y="180">UNREGISTERED</text><text fill="#eeeeee" stroke="none" font-family="Arial" font-size="24px" font-style="normal" font-weight="normal" text-decoration="none" x="400" y="210">UNREGISTERED</text><text fill="#eeeeee" stroke="none" font-family="Arial" font-size="24px" font-style="normal" font-weight="normal" text-decoration="none" x="400" y="240">UNREGISTERED</text><text fill="#eeeeee" stroke="none" font-family="Arial" font-size="24px" font-style="normal" font-weight="normal" text-decoration="none" x="400" y="270">UNREGISTERED</text><text fill="#eeeeee" stroke="none" font-family="Arial" font-size="24px" font-style="normal" font-weight="normal" text-decoration="none" x="400" y="300">UNREGISTERED</text><text fill="#eeeeee" stroke="none" font-family="Arial" font-size="24px" font-style="normal" font-weight="normal" text-decoration="none" x="400" y="330">UNREGISTERED</text><text fill="#eeeeee" stroke="none" font-family="Arial" font-size="24px" font-style="normal" font-weight="normal" text-decoration="none" x="400" y="360">UNREGISTERED</text><text fill="#eeeeee" stroke="none" font-family="Arial" font-size="24px" font-style="normal" font-weight="normal" text-decoration="none" x="400" y="390">UNREGISTERED</text><g transform="translate(-362,-174) scale(1,1)"><rect fill="#C0C0C0" stroke="none" x="447.9072265625" y="191" width="412" height="400" opacity="0.2"/></g><g transform="translate(-362,-174) scale(1,1)"><rect fill="#ffffff" stroke="none" x="440.9072265625" y="184" width="412" height="400"/></g><g transform="translate(-362,-174) scale(1,1)"><path fill="none" stroke="#000000" d="M 440.9072265625 184 L 852.9072265625 184 L 852.9072265625 584 L 440.9072265625 584 L 440.9072265625 184 Z Z" stroke-miterlimit="10"/></g><g transform="translate(-362,-174) scale(1,1)"><g><path fill="none" stroke="none"/><text fill="#000000" stroke="none" font-family="Arial" font-size="13px" font-style="normal" font-weight="bold" text-decoration="none" x="625.591796875" y="203.5">Monefy</text></g></g><g transform="translate(-362,-174) scale(1,1)"><path fill="#ffffff" stroke="none" d="M 382.27434055397725 371.18 C 382.27434055397725 366.386167936 386.16018287892274 362.5 390.95361328125 362.5 C 395.74704368357726 362.5 399.63288600852275 366.386167936 399.63288600852275 371.18 C 399.63288600852275 375.973832064 395.74704368357726 379.86 390.95361328125 379.86 C 386.16018287892274 379.86 382.27434055397725 375.973832064 382.27434055397725 371.18 Z"/></g><g transform="translate(-362,-174) scale(1,1)"><path fill="none" stroke="#000000" d="M 382.27434055397725 371.18 C 382.27434055397725 366.386167936 386.16018287892274 362.5 390.95361328125 362.5 C 395.74704368357726 362.5 399.63288600852275 366.386167936 399.63288600852275 371.18 C 399.63288600852275 375.973832064 395.74704368357726 379.86 390.95361328125 379.86 C 386.16018287892274 379.86 382.27434055397725 375.973832064 382.27434055397725 371.18 Z" stroke-miterlimit="10"/></g><g transform="translate(-362,-174) scale(1,1)"><path fill="none" stroke="#000000" d="M 390.95361328125 379.86 L 390.95361328125 397.14" stroke-miterlimit="10"/></g><g transform="translate(-362,-174) scale(1,1)"><path fill="none" stroke="#000000" d="M 381.76379509943183 386.34 L 400.14343146306817 386.34" stroke-miterlimit="10"/></g><g transform="translate(-362,-174) scale(1,1)"><path fill="none" stroke="#000000" d="M 390.95361328125 397.14 L 378.18997691761365 414.5" stroke-miterlimit="10"/></g><g transform="translate(-362,-174) scale(1,1)"><path fill="none" stroke="#000000" d="M 390.95361328125 397.14 L 403.71724964488635 414.5" stroke-miterlimit="10"/></g><g transform="translate(-362,-174) scale(1,1)"><g><path fill="none" stroke="none"/><text fill="#000000" stroke="none" font-family="Arial" font-size="13px" font-style="normal" font-weight="bold" text-decoration="none" x="377.22998046875" y="435">User</text></g></g><g transform="translate(-362,-174) scale(1,1)"><path fill="#C0C0C0" stroke="none" d="M 587.9072265625 278 C 587.9072265625 268.6111584 617.4564297625 261 653.9072265625 261 C 690.3580233625 261 719.9072265625 268.6111584 719.9072265625 278 C 719.9072265625 287.3888416 690.3580233625 295 653.9072265625 295 C 617.4564297625 295 587.9072265625 287.3888416 587.9072265625 278 Z" opacity="0.2"/></g><g transform="translate(-362,-174) scale(1,1)"><path fill="#ffffff" stroke="none" d="M 580.9072265625 271 C 580.9072265625 261.6111584 610.4564297625 254 646.9072265625 254 C 683.3580233625 254 712.9072265625 261.6111584 712.9072265625 271 C 712.9072265625 280.3888416 683.3580233625 288 646.9072265625 288 C 610.4564297625 288 580.9072265625 280.3888416 580.9072265625 271 Z"/></g><g transform="translate(-362,-174) scale(1,1)"><path fill="none" stroke="#000000" d="M 580.9072265625 271 C 580.9072265625 261.6111584 610.4564297625 254 646.9072265625 254 C 683.3580233625 254 712.9072265625 261.6111584 712.9072265625 271 C 712.9072265625 280.3888416 683.3580233625 288 646.9072265625 288 C 610.4564297625 288 580.9072265625 280.3888416 580.9072265625 271 Z" stroke-miterlimit="10"/></g><g transform="translate(-362,-174) scale(1,1)"><g><path fill="none" stroke="none"/><text fill="#000000" stroke="none" font-family="Arial" font-size="13px" font-style="normal" font-weight="bold" text-decoration="none" x="607.1708984375" y="278">View Transfer</text></g></g><g transform="translate(-362,-174) scale(1,1)"><path fill="#C0C0C0" stroke="none" d="M 582.9072265625 343 C 582.9072265625 333.6111584 614.6950057625 326 653.9072265625 326 C 693.1194473625 326 724.9072265625 333.6111584 724.9072265625 343 C 724.9072265625 352.3888416 693.1194473625 360 653.9072265625 360 C 614.6950057625 360 582.9072265625 352.3888416 582.9072265625 343 Z" opacity="0.2"/></g><g transform="translate(-362,-174) scale(1,1)"><path fill="#ffffff" stroke="none" d="M 575.9072265625 336 C 575.9072265625 326.6111584 607.6950057625 319 646.9072265625 319 C 686.1194473625 319 717.9072265625 326.6111584 717.9072265625 336 C 717.9072265625 345.3888416 686.1194473625 353 646.9072265625 353 C 607.6950057625 353 575.9072265625 345.3888416 575.9072265625 336 Z"/></g><g transform="translate(-362,-174) scale(1,1)"><path fill="none" stroke="#000000" d="M 575.9072265625 336 C 575.9072265625 326.6111584 607.6950057625 319 646.9072265625 319 C 686.1194473625 319 717.9072265625 326.6111584 717.9072265625 336 C 717.9072265625 345.3888416 686.1194473625 353 646.9072265625 353 C 607.6950057625 353 575.9072265625 345.3888416 575.9072265625 336 Z" stroke-miterlimit="10"/></g><g transform="translate(-362,-174) scale(1,1)"><g><path fill="none" stroke="none"/><text fill="#000000" stroke="none" font-family="Arial" font-size="13px" font-style="normal" font-weight="bold" text-decoration="none" x="603.9208984375" y="343">View Transfers</text></g></g><g transform="translate(-362,-174) scale(1,1)"><path fill="#C0C0C0" stroke="none" d="M 583.9072265625 408 C 583.9072265625 398.6111584 615.2472905625 391 653.9072265625 391 C 692.5671625625 391 723.9072265625 398.6111584 723.9072265625 408 C 723.9072265625 417.3888416 692.5671625625 425 653.9072265625 425 C 615.2472905625 425 583.9072265625 417.3888416 583.9072265625 408 Z" opacity="0.2"/></g><g transform="translate(-362,-174) scale(1,1)"><path fill="#ffffff" stroke="none" d="M 576.9072265625 401 C 576.9072265625 391.6111584 608.2472905625 384 646.9072265625 384 C 685.5671625625 384 716.9072265625 391.6111584 716.9072265625 401 C 716.9072265625 410.3888416 685.5671625625 418 646.9072265625 418 C 608.2472905625 418 576.9072265625 410.3888416 576.9072265625 401 Z"/></g><g transform="translate(-362,-174) scale(1,1)"><path fill="none" stroke="#000000" d="M 576.9072265625 401 C 576.9072265625 391.6111584 608.2472905625 384 646.9072265625 384 C 685.5671625625 384 716.9072265625 391.6111584 716.9072265625 401 C 716.9072265625 410.3888416 685.5671625625 418 646.9072265625 418 C 608.2472905625 418 576.9072265625 410.3888416 576.9072265625 401 Z" stroke-miterlimit="10"/></g><g transform="translate(-362,-174) scale(1,1)"><g><path fill="none" stroke="none"/><text fill="#000000" stroke="none" font-family="Arial" font-size="13px" font-style="normal" font-weight="bold" text-decoration="none" x="604.8857421875" y="408">Insert Transfer</text></g></g><g transform="translate(-362,-174) scale(1,1)"><path fill="#C0C0C0" stroke="none" d="M 591.4072265625 538 C 591.4072265625 528.6111584 619.3894265625 521 653.9072265625 521 C 688.4250265625 521 716.4072265625 528.6111584 716.4072265625 538 C 716.4072265625 547.3888416 688.4250265625 555 653.9072265625 555 C 619.3894265625 555 591.4072265625 547.3888416 591.4072265625 538 Z" opacity="0.2"/></g><g transform="translate(-362,-174) scale(1,1)"><path fill="#ffffff" stroke="none" d="M 584.4072265625 531 C 584.4072265625 521.6111584 612.3894265625 514 646.9072265625 514 C 681.4250265625 514 709.4072265625 521.6111584 709.4072265625 531 C 709.4072265625 540.3888416 681.4250265625 548 646.9072265625 548 C 612.3894265625 548 584.4072265625 540.3888416 584.4072265625 531 Z"/></g><g transform="translate(-362,-174) scale(1,1)"><path fill="none" stroke="#000000" d="M 584.4072265625 531 C 584.4072265625 521.6111584 612.3894265625 514 646.9072265625 514 C 681.4250265625 514 709.4072265625 521.6111584 709.4072265625 531 C 709.4072265625 540.3888416 681.4250265625 548 646.9072265625 548 C 612.3894265625 548 584.4072265625 540.3888416 584.4072265625 531 Z" stroke-miterlimit="10"/></g><g transform="translate(-362,-174) scale(1,1)"><g><path fill="none" stroke="none"/><text fill="#000000" stroke="none" font-family="Arial" font-size="13px" font-style="normal" font-weight="bold" text-decoration="none" x="609.941650390625" y="538">Edit Transfer</text></g></g><g transform="translate(-362,-174) scale(1,1)"><path fill="#C0C0C0" stroke="none" d="M 581.4072265625 473 C 581.4072265625 463.6111584 613.8665785625 456 653.9072265625 456 C 693.9478745625 456 726.4072265625 463.6111584 726.4072265625 473 C 726.4072265625 482.3888416 693.9478745625 490 653.9072265625 490 C 613.8665785625 490 581.4072265625 482.3888416 581.4072265625 473 Z" opacity="0.2"/></g><g transform="translate(-362,-174) scale(1,1)"><path fill="#ffffff" stroke="none" d="M 574.4072265625 466 C 574.4072265625 456.6111584 606.8665785625 449 646.9072265625 449 C 686.9478745625 449 719.4072265625 456.6111584 719.4072265625 466 C 719.4072265625 475.3888416 686.9478745625 483 646.9072265625 483 C 606.8665785625 483 574.4072265625 475.3888416 574.4072265625 466 Z"/></g><g transform="translate(-362,-174) scale(1,1)"><path fill="none" stroke="#000000" d="M 574.4072265625 466 C 574.4072265625 456.6111584 606.8665785625 449 646.9072265625 449 C 686.9478745625 449 719.4072265625 456.6111584 719.4072265625 466 C 719.4072265625 475.3888416 686.9478745625 483 646.9072265625 483 C 606.8665785625 483 574.4072265625 475.3888416 574.4072265625 466 Z" stroke-miterlimit="10"/></g><g transform="translate(-362,-174) scale(1,1)"><g><path fill="none" stroke="none"/><text fill="#000000" stroke="none" font-family="Arial" font-size="13px" font-style="normal" font-weight="bold" text-decoration="none" x="602.35302734375" y="473">Delete Transfer</text></g></g><g transform="translate(-362,-174) scale(1,1)"><path fill="none" stroke="#000000" d="M 401 361 Q 426 272 580 271" stroke-miterlimit="10"/></g><g transform="translate(-362,-174) scale(1,1)"><path fill="none" stroke="#000000" d="M 411 365 Q 411 365 418.5 351 Q 426 337 575 336" stroke-miterlimit="10"/></g><g transform="translate(-362,-174) scale(1,1)"><path fill="none" stroke="#000000" d="M 411 402 Q 411 402 418.5 402 Q 426 402 576 401" stroke-miterlimit="10"/></g><g transform="translate(-362,-174) scale(1,1)"><path fill="none" stroke="#000000" d="M 411 438 Q 411 438 418.5 452.5 Q 426 467 573 466" stroke-miterlimit="10"/></g><g transform="translate(-362,-174) scale(1,1)"><path fill="none" stroke="#000000" d="M 402 442 Q 402 442 414 487 Q 426 532 583 531" stroke-miterlimit="10"/></g></g></svg>